%TF.GenerationSoftware,KiCad,Pcbnew,(6.0.0)*%
%TF.CreationDate,2022-02-18T01:59:25+09:00*%
%TF.ProjectId,mic pre,6d696320-7072-4652-9e6b-696361645f70,rev?*%
%TF.SameCoordinates,Original*%
%TF.FileFunction,Legend,Bot*%
%TF.FilePolarity,Positive*%
%FSLAX46Y46*%
G04 Gerber Fmt 4.6, Leading zero omitted, Abs format (unit mm)*
G04 Created by KiCad (PCBNEW (6.0.0)) date 2022-02-18 01:59:25*
%MOMM*%
%LPD*%
G01*
G04 APERTURE LIST*
%ADD10C,0.100000*%
G04 APERTURE END LIST*
D10*
X155200000Y-94700000D02*
X155000000Y-94500000D01*
X171000000Y-103900000D02*
X172000000Y-102900000D01*
X152900000Y-94700000D02*
X155200000Y-94700000D01*
X155000000Y-94900000D02*
X155200000Y-94700000D01*
X171000000Y-101900000D02*
X172000000Y-102900000D01*
X131000000Y-102000000D02*
X130000000Y-103000000D01*
X130000000Y-103000000D02*
X135000000Y-103000000D01*
X131000000Y-104000000D02*
X130000000Y-103000000D01*
X172000000Y-102900000D02*
X167000000Y-102900000D01*
X154419047Y-94261904D02*
X154495238Y-94223809D01*
X154533333Y-94185714D01*
X154571428Y-94109523D01*
X154571428Y-93880952D01*
X154533333Y-93804761D01*
X154495238Y-93766666D01*
X154419047Y-93728571D01*
X154304761Y-93728571D01*
X154228571Y-93766666D01*
X154190476Y-93804761D01*
X154152380Y-93880952D01*
X154152380Y-94109523D01*
X154190476Y-94185714D01*
X154228571Y-94223809D01*
X154304761Y-94261904D01*
X154419047Y-94261904D01*
X153809523Y-93728571D02*
X153809523Y-94261904D01*
X153809523Y-93804761D02*
X153771428Y-93766666D01*
X153695238Y-93728571D01*
X153580952Y-93728571D01*
X153504761Y-93766666D01*
X153466666Y-93842857D01*
X153466666Y-94261904D01*
X156238095Y-103761904D02*
X156085714Y-103761904D01*
X156009523Y-103723809D01*
X155971428Y-103685714D01*
X155895238Y-103571428D01*
X155857142Y-103419047D01*
X155857142Y-103114285D01*
X155895238Y-103038095D01*
X155933333Y-103000000D01*
X156009523Y-102961904D01*
X156161904Y-102961904D01*
X156238095Y-103000000D01*
X156276190Y-103038095D01*
X156314285Y-103114285D01*
X156314285Y-103304761D01*
X156276190Y-103380952D01*
X156238095Y-103419047D01*
X156161904Y-103457142D01*
X156009523Y-103457142D01*
X155933333Y-103419047D01*
X155895238Y-103380952D01*
X155857142Y-103304761D01*
X155590476Y-103228571D02*
X155400000Y-103761904D01*
X155209523Y-103228571D01*
X154295238Y-103761904D02*
X154295238Y-102961904D01*
X154295238Y-103266666D02*
X154219047Y-103228571D01*
X154066666Y-103228571D01*
X153990476Y-103266666D01*
X153952380Y-103304761D01*
X153914285Y-103380952D01*
X153914285Y-103609523D01*
X153952380Y-103685714D01*
X153990476Y-103723809D01*
X154066666Y-103761904D01*
X154219047Y-103761904D01*
X154295238Y-103723809D01*
X153228571Y-103761904D02*
X153228571Y-103342857D01*
X153266666Y-103266666D01*
X153342857Y-103228571D01*
X153495238Y-103228571D01*
X153571428Y-103266666D01*
X153228571Y-103723809D02*
X153304761Y-103761904D01*
X153495238Y-103761904D01*
X153571428Y-103723809D01*
X153609523Y-103647619D01*
X153609523Y-103571428D01*
X153571428Y-103495238D01*
X153495238Y-103457142D01*
X153304761Y-103457142D01*
X153228571Y-103419047D01*
X152961904Y-103228571D02*
X152657142Y-103228571D01*
X152847619Y-102961904D02*
X152847619Y-103647619D01*
X152809523Y-103723809D01*
X152733333Y-103761904D01*
X152657142Y-103761904D01*
X152504761Y-103228571D02*
X152200000Y-103228571D01*
X152390476Y-102961904D02*
X152390476Y-103647619D01*
X152352380Y-103723809D01*
X152276190Y-103761904D01*
X152200000Y-103761904D01*
X151628571Y-103723809D02*
X151704761Y-103761904D01*
X151857142Y-103761904D01*
X151933333Y-103723809D01*
X151971428Y-103647619D01*
X151971428Y-103342857D01*
X151933333Y-103266666D01*
X151857142Y-103228571D01*
X151704761Y-103228571D01*
X151628571Y-103266666D01*
X151590476Y-103342857D01*
X151590476Y-103419047D01*
X151971428Y-103495238D01*
X151247619Y-103761904D02*
X151247619Y-103228571D01*
X151247619Y-103380952D02*
X151209523Y-103304761D01*
X151171428Y-103266666D01*
X151095238Y-103228571D01*
X151019047Y-103228571D01*
X150828571Y-103228571D02*
X150638095Y-103761904D01*
X150447619Y-103228571D02*
X150638095Y-103761904D01*
X150714285Y-103952380D01*
X150752380Y-103990476D01*
X150828571Y-104028571D01*
X156095238Y-101742857D02*
X156704761Y-101742857D01*
X156400000Y-101438095D02*
X156400000Y-102047619D01*
X168500000Y-102661904D02*
X168576190Y-102623809D01*
X168614285Y-102585714D01*
X168652380Y-102509523D01*
X168652380Y-102280952D01*
X168614285Y-102204761D01*
X168576190Y-102166666D01*
X168500000Y-102128571D01*
X168385714Y-102128571D01*
X168309523Y-102166666D01*
X168271428Y-102204761D01*
X168233333Y-102280952D01*
X168233333Y-102509523D01*
X168271428Y-102585714D01*
X168309523Y-102623809D01*
X168385714Y-102661904D01*
X168500000Y-102661904D01*
X167547619Y-102128571D02*
X167547619Y-102661904D01*
X167890476Y-102128571D02*
X167890476Y-102547619D01*
X167852380Y-102623809D01*
X167776190Y-102661904D01*
X167661904Y-102661904D01*
X167585714Y-102623809D01*
X167547619Y-102585714D01*
X167280952Y-102128571D02*
X166976190Y-102128571D01*
X167166666Y-101861904D02*
X167166666Y-102547619D01*
X167128571Y-102623809D01*
X167052380Y-102661904D01*
X166976190Y-102661904D01*
X166709523Y-102128571D02*
X166709523Y-102928571D01*
X166709523Y-102166666D02*
X166633333Y-102128571D01*
X166480952Y-102128571D01*
X166404761Y-102166666D01*
X166366666Y-102204761D01*
X166328571Y-102280952D01*
X166328571Y-102509523D01*
X166366666Y-102585714D01*
X166404761Y-102623809D01*
X166480952Y-102661904D01*
X166633333Y-102661904D01*
X166709523Y-102623809D01*
X165642857Y-102128571D02*
X165642857Y-102661904D01*
X165985714Y-102128571D02*
X165985714Y-102547619D01*
X165947619Y-102623809D01*
X165871428Y-102661904D01*
X165757142Y-102661904D01*
X165680952Y-102623809D01*
X165642857Y-102585714D01*
X165376190Y-102128571D02*
X165071428Y-102128571D01*
X165261904Y-101861904D02*
X165261904Y-102547619D01*
X165223809Y-102623809D01*
X165147619Y-102661904D01*
X165071428Y-102661904D01*
X150604761Y-101757142D02*
X149995238Y-101757142D01*
X138576190Y-102761904D02*
X138576190Y-102228571D01*
X138576190Y-102304761D02*
X138538095Y-102266666D01*
X138461904Y-102228571D01*
X138347619Y-102228571D01*
X138271428Y-102266666D01*
X138233333Y-102342857D01*
X138233333Y-102761904D01*
X138233333Y-102342857D02*
X138195238Y-102266666D01*
X138119047Y-102228571D01*
X138004761Y-102228571D01*
X137928571Y-102266666D01*
X137890476Y-102342857D01*
X137890476Y-102761904D01*
X137509523Y-102761904D02*
X137509523Y-102228571D01*
X137509523Y-101961904D02*
X137547619Y-102000000D01*
X137509523Y-102038095D01*
X137471428Y-102000000D01*
X137509523Y-101961904D01*
X137509523Y-102038095D01*
X136785714Y-102723809D02*
X136861904Y-102761904D01*
X137014285Y-102761904D01*
X137090476Y-102723809D01*
X137128571Y-102685714D01*
X137166666Y-102609523D01*
X137166666Y-102380952D01*
X137128571Y-102304761D01*
X137090476Y-102266666D01*
X137014285Y-102228571D01*
X136861904Y-102228571D01*
X136785714Y-102266666D01*
X136442857Y-102761904D02*
X136442857Y-102228571D01*
X136442857Y-102380952D02*
X136404761Y-102304761D01*
X136366666Y-102266666D01*
X136290476Y-102228571D01*
X136214285Y-102228571D01*
X135833333Y-102761904D02*
X135909523Y-102723809D01*
X135947619Y-102685714D01*
X135985714Y-102609523D01*
X135985714Y-102380952D01*
X135947619Y-102304761D01*
X135909523Y-102266666D01*
X135833333Y-102228571D01*
X135719047Y-102228571D01*
X135642857Y-102266666D01*
X135604761Y-102304761D01*
X135566666Y-102380952D01*
X135566666Y-102609523D01*
X135604761Y-102685714D01*
X135642857Y-102723809D01*
X135719047Y-102761904D01*
X135833333Y-102761904D01*
X135223809Y-102228571D02*
X135223809Y-103028571D01*
X135223809Y-102266666D02*
X135147619Y-102228571D01*
X134995238Y-102228571D01*
X134919047Y-102266666D01*
X134880952Y-102304761D01*
X134842857Y-102380952D01*
X134842857Y-102609523D01*
X134880952Y-102685714D01*
X134919047Y-102723809D01*
X134995238Y-102761904D01*
X135147619Y-102761904D01*
X135223809Y-102723809D01*
X134500000Y-102761904D02*
X134500000Y-101961904D01*
X134157142Y-102761904D02*
X134157142Y-102342857D01*
X134195238Y-102266666D01*
X134271428Y-102228571D01*
X134385714Y-102228571D01*
X134461904Y-102266666D01*
X134500000Y-102304761D01*
X133661904Y-102761904D02*
X133738095Y-102723809D01*
X133776190Y-102685714D01*
X133814285Y-102609523D01*
X133814285Y-102380952D01*
X133776190Y-102304761D01*
X133738095Y-102266666D01*
X133661904Y-102228571D01*
X133547619Y-102228571D01*
X133471428Y-102266666D01*
X133433333Y-102304761D01*
X133395238Y-102380952D01*
X133395238Y-102609523D01*
X133433333Y-102685714D01*
X133471428Y-102723809D01*
X133547619Y-102761904D01*
X133661904Y-102761904D01*
X133052380Y-102228571D02*
X133052380Y-102761904D01*
X133052380Y-102304761D02*
X133014285Y-102266666D01*
X132938095Y-102228571D01*
X132823809Y-102228571D01*
X132747619Y-102266666D01*
X132709523Y-102342857D01*
X132709523Y-102761904D01*
X132023809Y-102723809D02*
X132100000Y-102761904D01*
X132252380Y-102761904D01*
X132328571Y-102723809D01*
X132366666Y-102647619D01*
X132366666Y-102342857D01*
X132328571Y-102266666D01*
X132252380Y-102228571D01*
X132100000Y-102228571D01*
X132023809Y-102266666D01*
X131985714Y-102342857D01*
X131985714Y-102419047D01*
X132366666Y-102495238D01*
M02*
