%TF.GenerationSoftware,KiCad,Pcbnew,(6.0.0)*%
%TF.CreationDate,2022-02-18T01:59:25+09:00*%
%TF.ProjectId,mic pre,6d696320-7072-4652-9e6b-696361645f70,rev?*%
%TF.SameCoordinates,Original*%
%TF.FileFunction,Soldermask,Top*%
%TF.FilePolarity,Negative*%
%FSLAX46Y46*%
G04 Gerber Fmt 4.6, Leading zero omitted, Abs format (unit mm)*
G04 Created by KiCad (PCBNEW (6.0.0)) date 2022-02-18 01:59:25*
%MOMM*%
%LPD*%
G01*
G04 APERTURE LIST*
G04 Aperture macros list*
%AMRoundRect*
0 Rectangle with rounded corners*
0 $1 Rounding radius*
0 $2 $3 $4 $5 $6 $7 $8 $9 X,Y pos of 4 corners*
0 Add a 4 corners polygon primitive as box body*
4,1,4,$2,$3,$4,$5,$6,$7,$8,$9,$2,$3,0*
0 Add four circle primitives for the rounded corners*
1,1,$1+$1,$2,$3*
1,1,$1+$1,$4,$5*
1,1,$1+$1,$6,$7*
1,1,$1+$1,$8,$9*
0 Add four rect primitives between the rounded corners*
20,1,$1+$1,$2,$3,$4,$5,0*
20,1,$1+$1,$4,$5,$6,$7,0*
20,1,$1+$1,$6,$7,$8,$9,0*
20,1,$1+$1,$8,$9,$2,$3,0*%
G04 Aperture macros list end*
%ADD10C,2.000000*%
%ADD11RoundRect,0.237500X0.300000X0.237500X-0.300000X0.237500X-0.300000X-0.237500X0.300000X-0.237500X0*%
%ADD12RoundRect,0.250000X0.425000X-0.537500X0.425000X0.537500X-0.425000X0.537500X-0.425000X-0.537500X0*%
%ADD13RoundRect,0.237500X0.237500X-0.250000X0.237500X0.250000X-0.237500X0.250000X-0.237500X-0.250000X0*%
%ADD14RoundRect,0.237500X-0.237500X0.250000X-0.237500X-0.250000X0.237500X-0.250000X0.237500X0.250000X0*%
%ADD15RoundRect,0.237500X-0.250000X-0.237500X0.250000X-0.237500X0.250000X0.237500X-0.250000X0.237500X0*%
%ADD16R,1.500000X0.400000*%
%ADD17R,1.700000X1.700000*%
%ADD18O,1.700000X1.700000*%
%ADD19C,1.200000*%
%ADD20O,2.616000X1.308000*%
%ADD21O,1.308000X2.616000*%
%ADD22RoundRect,0.250000X-0.425000X0.537500X-0.425000X-0.537500X0.425000X-0.537500X0.425000X0.537500X0*%
%ADD23RoundRect,0.250000X-0.537500X-0.425000X0.537500X-0.425000X0.537500X0.425000X-0.537500X0.425000X0*%
%ADD24RoundRect,0.237500X-0.300000X-0.237500X0.300000X-0.237500X0.300000X0.237500X-0.300000X0.237500X0*%
%ADD25O,4.500000X2.000000*%
G04 APERTURE END LIST*
D10*
%TO.C,SW1*%
X156500000Y-94600000D03*
X154000000Y-98100000D03*
X151500000Y-94600000D03*
%TD*%
D11*
%TO.C,C5*%
X148062500Y-97500000D03*
X146337500Y-97500000D03*
%TD*%
D12*
%TO.C,C6*%
X160000000Y-101875000D03*
X160000000Y-99000000D03*
%TD*%
D13*
%TO.C,R2*%
X142000000Y-100825000D03*
X142000000Y-99000000D03*
%TD*%
D14*
%TO.C,R1*%
X142000000Y-103175000D03*
X142000000Y-105000000D03*
%TD*%
D15*
%TO.C,R4*%
X146662500Y-103000000D03*
X148487500Y-103000000D03*
%TD*%
D16*
%TO.C,IC1*%
X146245000Y-99350000D03*
X146245000Y-100000000D03*
X146245000Y-100650000D03*
X148905000Y-100650000D03*
X148905000Y-99350000D03*
%TD*%
D13*
%TO.C,R6*%
X160000000Y-96812500D03*
X160000000Y-94987500D03*
%TD*%
D17*
%TO.C,J1*%
X154640000Y-101700000D03*
D18*
X152100000Y-101700000D03*
%TD*%
D19*
%TO.C,J3*%
X171500000Y-105000000D03*
X169000000Y-105000000D03*
X164000000Y-100000000D03*
X169000000Y-95000000D03*
X171500000Y-95000000D03*
D20*
X164000000Y-105000000D03*
D21*
X169000000Y-100000000D03*
D20*
X164000000Y-95000000D03*
%TD*%
D14*
%TO.C,R5*%
X158000000Y-100087500D03*
X158000000Y-101912500D03*
%TD*%
D22*
%TO.C,C2*%
X144000000Y-101125000D03*
X144000000Y-104000000D03*
%TD*%
D23*
%TO.C,C1*%
X157125000Y-105300000D03*
X160000000Y-105300000D03*
%TD*%
D24*
%TO.C,C4*%
X146712500Y-105000000D03*
X148437500Y-105000000D03*
%TD*%
D12*
%TO.C,C3*%
X144000000Y-98437500D03*
X144000000Y-95562500D03*
%TD*%
D19*
%TO.C,J2*%
X138000000Y-100000000D03*
X130500000Y-95000000D03*
X133000000Y-105000000D03*
X133000000Y-95000000D03*
X130500000Y-105000000D03*
D20*
X138000000Y-95000000D03*
D21*
X133000000Y-100000000D03*
D20*
X138000000Y-105000000D03*
%TD*%
D25*
%TO.C,REF\u002A\u002A*%
X153400000Y-105600000D03*
%TD*%
D13*
%TO.C,R3*%
X142000000Y-97000000D03*
X142000000Y-95175000D03*
%TD*%
M02*
