%TF.GenerationSoftware,KiCad,Pcbnew,(6.0.0)*%
%TF.CreationDate,2022-02-18T01:59:25+09:00*%
%TF.ProjectId,mic pre,6d696320-7072-4652-9e6b-696361645f70,rev?*%
%TF.SameCoordinates,Original*%
%TF.FileFunction,Copper,L2,Bot*%
%TF.FilePolarity,Positive*%
%FSLAX46Y46*%
G04 Gerber Fmt 4.6, Leading zero omitted, Abs format (unit mm)*
G04 Created by KiCad (PCBNEW (6.0.0)) date 2022-02-18 01:59:25*
%MOMM*%
%LPD*%
G01*
G04 APERTURE LIST*
%TA.AperFunction,ComponentPad*%
%ADD10C,2.000000*%
%TD*%
%TA.AperFunction,ComponentPad*%
%ADD11R,1.700000X1.700000*%
%TD*%
%TA.AperFunction,ComponentPad*%
%ADD12O,1.700000X1.700000*%
%TD*%
%TA.AperFunction,ComponentPad*%
%ADD13O,2.616000X1.308000*%
%TD*%
%TA.AperFunction,ComponentPad*%
%ADD14O,1.308000X2.616000*%
%TD*%
%TA.AperFunction,ComponentPad*%
%ADD15O,4.500000X2.000000*%
%TD*%
%TA.AperFunction,ViaPad*%
%ADD16C,0.800000*%
%TD*%
%TA.AperFunction,Conductor*%
%ADD17C,0.400000*%
%TD*%
%TA.AperFunction,Conductor*%
%ADD18C,0.250000*%
%TD*%
G04 APERTURE END LIST*
D10*
%TO.P,SW1,1,A*%
%TO.N,VCC*%
X156500000Y-94600000D03*
%TO.P,SW1,2,B*%
%TO.N,Net-(J1-Pad1)*%
X154000000Y-98100000D03*
%TO.P,SW1,3,C*%
%TO.N,unconnected-(SW1-Pad3)*%
X151500000Y-94600000D03*
%TD*%
D11*
%TO.P,J1,1,Pin_1*%
%TO.N,Net-(J1-Pad1)*%
X154640000Y-101700000D03*
D12*
%TO.P,J1,2,Pin_2*%
%TO.N,GND*%
X152100000Y-101700000D03*
%TD*%
D13*
%TO.P,J3,R*%
%TO.N,unconnected-(J3-PadR)*%
X164000000Y-105000000D03*
D14*
%TO.P,J3,S*%
%TO.N,GND*%
X169000000Y-100000000D03*
D13*
%TO.P,J3,T*%
%TO.N,Net-(C6-Pad2)*%
X164000000Y-95000000D03*
%TD*%
%TO.P,J2,R*%
%TO.N,unconnected-(J2-PadR)*%
X138000000Y-95000000D03*
D14*
%TO.P,J2,S*%
%TO.N,GND*%
X133000000Y-100000000D03*
D13*
%TO.P,J2,T*%
%TO.N,Net-(C2-Pad2)*%
X138000000Y-105000000D03*
%TD*%
D15*
%TO.P,REF\u002A\u002A,1*%
%TO.N,N/C*%
X153400000Y-105600000D03*
%TD*%
D16*
%TO.N,VCC*%
X143600000Y-105700000D03*
X158815183Y-100957592D03*
X158350500Y-105100000D03*
X142000000Y-103800000D03*
%TO.N,GND*%
X157700000Y-98600000D03*
X146700000Y-95000000D03*
X145400000Y-102800000D03*
X147600000Y-101800000D03*
X158400000Y-94000000D03*
X154000000Y-95900000D03*
%TD*%
D17*
%TO.N,VCC*%
X158815183Y-100957592D02*
X158815183Y-104635317D01*
X158815183Y-104635317D02*
X158350500Y-105100000D01*
D18*
X142000000Y-104100000D02*
X142000000Y-103800000D01*
D17*
X143600000Y-105700000D02*
X142000000Y-104100000D01*
%TO.N,Net-(J1-Pad1)*%
X154640000Y-98740000D02*
X154000000Y-98100000D01*
X154640000Y-101700000D02*
X154640000Y-98740000D01*
%TD*%
%TA.AperFunction,Conductor*%
%TO.N,GND*%
G36*
X150917877Y-93274002D02*
G01*
X150964370Y-93327658D01*
X150974474Y-93397932D01*
X150944980Y-93462512D01*
X150903006Y-93494195D01*
X150875341Y-93507095D01*
X150875336Y-93507098D01*
X150870354Y-93509421D01*
X150865847Y-93512577D01*
X150865845Y-93512578D01*
X150695054Y-93632167D01*
X150695051Y-93632169D01*
X150690543Y-93635326D01*
X150535326Y-93790543D01*
X150409421Y-93970354D01*
X150407098Y-93975336D01*
X150407095Y-93975341D01*
X150360104Y-94076116D01*
X150316653Y-94169297D01*
X150259839Y-94381326D01*
X150240708Y-94600000D01*
X150259839Y-94818674D01*
X150316653Y-95030703D01*
X150343783Y-95088884D01*
X150407095Y-95224659D01*
X150407098Y-95224664D01*
X150409421Y-95229646D01*
X150412577Y-95234153D01*
X150412578Y-95234155D01*
X150470179Y-95316417D01*
X150535326Y-95409457D01*
X150690543Y-95564674D01*
X150695051Y-95567831D01*
X150695054Y-95567833D01*
X150763380Y-95615675D01*
X150870354Y-95690579D01*
X150875336Y-95692902D01*
X150875341Y-95692905D01*
X150964803Y-95734621D01*
X151069297Y-95783347D01*
X151281326Y-95840161D01*
X151500000Y-95859292D01*
X151718674Y-95840161D01*
X151930703Y-95783347D01*
X152035197Y-95734621D01*
X152124659Y-95692905D01*
X152124664Y-95692902D01*
X152129646Y-95690579D01*
X152236620Y-95615675D01*
X152304946Y-95567833D01*
X152304949Y-95567831D01*
X152309457Y-95564674D01*
X152464674Y-95409457D01*
X152529822Y-95316417D01*
X152587422Y-95234155D01*
X152587423Y-95234153D01*
X152590579Y-95229646D01*
X152592902Y-95224664D01*
X152592905Y-95224659D01*
X152656217Y-95088884D01*
X152683347Y-95030703D01*
X152740161Y-94818674D01*
X152759292Y-94600000D01*
X152740161Y-94381326D01*
X152683347Y-94169297D01*
X152639896Y-94076116D01*
X152592905Y-93975341D01*
X152592902Y-93975336D01*
X152590579Y-93970354D01*
X152464674Y-93790543D01*
X152309457Y-93635326D01*
X152304949Y-93632169D01*
X152304946Y-93632167D01*
X152134155Y-93512578D01*
X152134153Y-93512577D01*
X152129646Y-93509421D01*
X152124664Y-93507098D01*
X152124659Y-93507095D01*
X152096994Y-93494195D01*
X152043709Y-93447277D01*
X152024248Y-93379000D01*
X152044790Y-93311040D01*
X152098813Y-93264975D01*
X152150244Y-93254000D01*
X155849756Y-93254000D01*
X155917877Y-93274002D01*
X155964370Y-93327658D01*
X155974474Y-93397932D01*
X155944980Y-93462512D01*
X155903006Y-93494195D01*
X155875341Y-93507095D01*
X155875336Y-93507098D01*
X155870354Y-93509421D01*
X155865847Y-93512577D01*
X155865845Y-93512578D01*
X155695054Y-93632167D01*
X155695051Y-93632169D01*
X155690543Y-93635326D01*
X155535326Y-93790543D01*
X155409421Y-93970354D01*
X155407098Y-93975336D01*
X155407095Y-93975341D01*
X155360104Y-94076116D01*
X155316653Y-94169297D01*
X155259839Y-94381326D01*
X155240708Y-94600000D01*
X155259839Y-94818674D01*
X155316653Y-95030703D01*
X155343783Y-95088884D01*
X155407095Y-95224659D01*
X155407098Y-95224664D01*
X155409421Y-95229646D01*
X155412577Y-95234153D01*
X155412578Y-95234155D01*
X155470179Y-95316417D01*
X155535326Y-95409457D01*
X155690543Y-95564674D01*
X155695051Y-95567831D01*
X155695054Y-95567833D01*
X155763380Y-95615675D01*
X155870354Y-95690579D01*
X155875336Y-95692902D01*
X155875341Y-95692905D01*
X155964803Y-95734621D01*
X156069297Y-95783347D01*
X156281326Y-95840161D01*
X156500000Y-95859292D01*
X156718674Y-95840161D01*
X156930703Y-95783347D01*
X157035197Y-95734621D01*
X157124659Y-95692905D01*
X157124664Y-95692902D01*
X157129646Y-95690579D01*
X157236620Y-95615675D01*
X157304946Y-95567833D01*
X157304949Y-95567831D01*
X157309457Y-95564674D01*
X157464674Y-95409457D01*
X157529822Y-95316417D01*
X157587422Y-95234155D01*
X157587423Y-95234153D01*
X157590579Y-95229646D01*
X157592902Y-95224664D01*
X157592905Y-95224659D01*
X157653138Y-95095487D01*
X162437500Y-95095487D01*
X162477206Y-95282288D01*
X162479891Y-95288318D01*
X162479891Y-95288319D01*
X162531817Y-95404946D01*
X162554882Y-95456752D01*
X162558762Y-95462093D01*
X162558763Y-95462094D01*
X162576034Y-95485865D01*
X162667134Y-95611253D01*
X162672044Y-95615674D01*
X162672045Y-95615675D01*
X162755235Y-95690579D01*
X162809056Y-95739040D01*
X162974444Y-95834527D01*
X163156072Y-95893542D01*
X163162633Y-95894232D01*
X163162635Y-95894232D01*
X163215889Y-95899829D01*
X163298390Y-95908500D01*
X164701610Y-95908500D01*
X164784111Y-95899829D01*
X164837365Y-95894232D01*
X164837367Y-95894232D01*
X164843928Y-95893542D01*
X165025556Y-95834527D01*
X165190944Y-95739040D01*
X165244766Y-95690579D01*
X165327955Y-95615675D01*
X165327956Y-95615674D01*
X165332866Y-95611253D01*
X165423966Y-95485865D01*
X165441237Y-95462094D01*
X165441238Y-95462093D01*
X165445118Y-95456752D01*
X165468184Y-95404946D01*
X165520109Y-95288319D01*
X165520109Y-95288318D01*
X165522794Y-95282288D01*
X165562500Y-95095487D01*
X165562500Y-94952019D01*
X168141801Y-94952019D01*
X168142158Y-94958836D01*
X168142158Y-94958840D01*
X168150077Y-95109920D01*
X168151518Y-95137424D01*
X168153328Y-95143996D01*
X168153329Y-95144001D01*
X168199008Y-95309835D01*
X168200821Y-95316417D01*
X168287410Y-95480648D01*
X168407245Y-95622454D01*
X168412668Y-95626601D01*
X168412670Y-95626602D01*
X168549315Y-95731075D01*
X168549319Y-95731077D01*
X168554736Y-95735219D01*
X168560916Y-95738101D01*
X168560918Y-95738102D01*
X168716823Y-95810802D01*
X168716826Y-95810803D01*
X168723000Y-95813682D01*
X168729648Y-95815168D01*
X168729651Y-95815169D01*
X168825391Y-95836569D01*
X168904188Y-95854182D01*
X168909876Y-95854500D01*
X169046385Y-95854500D01*
X169184573Y-95839488D01*
X169347164Y-95784770D01*
X169354064Y-95782448D01*
X169354066Y-95782447D01*
X169360535Y-95780270D01*
X169519677Y-95684649D01*
X169524634Y-95679961D01*
X169524637Y-95679959D01*
X169649614Y-95561773D01*
X169649616Y-95561771D01*
X169654572Y-95557084D01*
X169758928Y-95403529D01*
X169791355Y-95322456D01*
X169825342Y-95237484D01*
X169825343Y-95237479D01*
X169827876Y-95231147D01*
X169828990Y-95224420D01*
X169828991Y-95224415D01*
X169857084Y-95054718D01*
X169857084Y-95054715D01*
X169858199Y-95047981D01*
X169857294Y-95030703D01*
X169853170Y-94952019D01*
X170641801Y-94952019D01*
X170642158Y-94958836D01*
X170642158Y-94958840D01*
X170650077Y-95109920D01*
X170651518Y-95137424D01*
X170653328Y-95143996D01*
X170653329Y-95144001D01*
X170699008Y-95309835D01*
X170700821Y-95316417D01*
X170787410Y-95480648D01*
X170907245Y-95622454D01*
X170912668Y-95626601D01*
X170912670Y-95626602D01*
X171049315Y-95731075D01*
X171049319Y-95731077D01*
X171054736Y-95735219D01*
X171060916Y-95738101D01*
X171060918Y-95738102D01*
X171216823Y-95810802D01*
X171216826Y-95810803D01*
X171223000Y-95813682D01*
X171229648Y-95815168D01*
X171229651Y-95815169D01*
X171325391Y-95836569D01*
X171404188Y-95854182D01*
X171409876Y-95854500D01*
X171546385Y-95854500D01*
X171684573Y-95839488D01*
X171847164Y-95784770D01*
X171854064Y-95782448D01*
X171854066Y-95782447D01*
X171860535Y-95780270D01*
X172019677Y-95684649D01*
X172024634Y-95679961D01*
X172024637Y-95679959D01*
X172149614Y-95561773D01*
X172149616Y-95561771D01*
X172154572Y-95557084D01*
X172258928Y-95403529D01*
X172291355Y-95322456D01*
X172325342Y-95237484D01*
X172325343Y-95237479D01*
X172327876Y-95231147D01*
X172328990Y-95224420D01*
X172328991Y-95224415D01*
X172357084Y-95054718D01*
X172357084Y-95054715D01*
X172358199Y-95047981D01*
X172357294Y-95030703D01*
X172348839Y-94869389D01*
X172348482Y-94862576D01*
X172346672Y-94856004D01*
X172346671Y-94855999D01*
X172300992Y-94690165D01*
X172299179Y-94683583D01*
X172212590Y-94519352D01*
X172092755Y-94377546D01*
X172087330Y-94373398D01*
X171950685Y-94268925D01*
X171950681Y-94268923D01*
X171945264Y-94264781D01*
X171939084Y-94261899D01*
X171939082Y-94261898D01*
X171783177Y-94189198D01*
X171783174Y-94189197D01*
X171777000Y-94186318D01*
X171770352Y-94184832D01*
X171770349Y-94184831D01*
X171600849Y-94146944D01*
X171600850Y-94146944D01*
X171595812Y-94145818D01*
X171590124Y-94145500D01*
X171453615Y-94145500D01*
X171315427Y-94160512D01*
X171230189Y-94189198D01*
X171145936Y-94217552D01*
X171145934Y-94217553D01*
X171139465Y-94219730D01*
X170980323Y-94315351D01*
X170975366Y-94320039D01*
X170975363Y-94320041D01*
X170897057Y-94394092D01*
X170845428Y-94442916D01*
X170741072Y-94596471D01*
X170738539Y-94602805D01*
X170738537Y-94602808D01*
X170674658Y-94762516D01*
X170674657Y-94762521D01*
X170672124Y-94768853D01*
X170671010Y-94775580D01*
X170671009Y-94775585D01*
X170648572Y-94911116D01*
X170641801Y-94952019D01*
X169853170Y-94952019D01*
X169848839Y-94869389D01*
X169848482Y-94862576D01*
X169846672Y-94856004D01*
X169846671Y-94855999D01*
X169800992Y-94690165D01*
X169799179Y-94683583D01*
X169712590Y-94519352D01*
X169592755Y-94377546D01*
X169587330Y-94373398D01*
X169450685Y-94268925D01*
X169450681Y-94268923D01*
X169445264Y-94264781D01*
X169439084Y-94261899D01*
X169439082Y-94261898D01*
X169283177Y-94189198D01*
X169283174Y-94189197D01*
X169277000Y-94186318D01*
X169270352Y-94184832D01*
X169270349Y-94184831D01*
X169100849Y-94146944D01*
X169100850Y-94146944D01*
X169095812Y-94145818D01*
X169090124Y-94145500D01*
X168953615Y-94145500D01*
X168815427Y-94160512D01*
X168730189Y-94189198D01*
X168645936Y-94217552D01*
X168645934Y-94217553D01*
X168639465Y-94219730D01*
X168480323Y-94315351D01*
X168475366Y-94320039D01*
X168475363Y-94320041D01*
X168397057Y-94394092D01*
X168345428Y-94442916D01*
X168241072Y-94596471D01*
X168238539Y-94602805D01*
X168238537Y-94602808D01*
X168174658Y-94762516D01*
X168174657Y-94762521D01*
X168172124Y-94768853D01*
X168171010Y-94775580D01*
X168171009Y-94775585D01*
X168148572Y-94911116D01*
X168141801Y-94952019D01*
X165562500Y-94952019D01*
X165562500Y-94904513D01*
X165522794Y-94717712D01*
X165520109Y-94711681D01*
X165447803Y-94549278D01*
X165447802Y-94549276D01*
X165445118Y-94543248D01*
X165427757Y-94519352D01*
X165336749Y-94394092D01*
X165332866Y-94388747D01*
X165256560Y-94320041D01*
X165195852Y-94265379D01*
X165195851Y-94265378D01*
X165190944Y-94260960D01*
X165059085Y-94184831D01*
X165031279Y-94168777D01*
X165031278Y-94168776D01*
X165025556Y-94165473D01*
X164843928Y-94106458D01*
X164837367Y-94105768D01*
X164837365Y-94105768D01*
X164784111Y-94100171D01*
X164701610Y-94091500D01*
X163298390Y-94091500D01*
X163215889Y-94100171D01*
X163162635Y-94105768D01*
X163162633Y-94105768D01*
X163156072Y-94106458D01*
X162974444Y-94165473D01*
X162968722Y-94168776D01*
X162968721Y-94168777D01*
X162940915Y-94184831D01*
X162809056Y-94260960D01*
X162804149Y-94265378D01*
X162804148Y-94265379D01*
X162743440Y-94320041D01*
X162667134Y-94388747D01*
X162663251Y-94394092D01*
X162572244Y-94519352D01*
X162554882Y-94543248D01*
X162552198Y-94549276D01*
X162552197Y-94549278D01*
X162479891Y-94711681D01*
X162477206Y-94717712D01*
X162437500Y-94904513D01*
X162437500Y-95095487D01*
X157653138Y-95095487D01*
X157656217Y-95088884D01*
X157683347Y-95030703D01*
X157740161Y-94818674D01*
X157759292Y-94600000D01*
X157740161Y-94381326D01*
X157683347Y-94169297D01*
X157639896Y-94076116D01*
X157592905Y-93975341D01*
X157592902Y-93975336D01*
X157590579Y-93970354D01*
X157464674Y-93790543D01*
X157309457Y-93635326D01*
X157304949Y-93632169D01*
X157304946Y-93632167D01*
X157134155Y-93512578D01*
X157134153Y-93512577D01*
X157129646Y-93509421D01*
X157124664Y-93507098D01*
X157124659Y-93507095D01*
X157096994Y-93494195D01*
X157043709Y-93447277D01*
X157024248Y-93379000D01*
X157044790Y-93311040D01*
X157098813Y-93264975D01*
X157150244Y-93254000D01*
X173120000Y-93254000D01*
X173188121Y-93274002D01*
X173234614Y-93327658D01*
X173246000Y-93380000D01*
X173246000Y-97620000D01*
X173225998Y-97688121D01*
X173172342Y-97734614D01*
X173120000Y-97746000D01*
X172337425Y-97746000D01*
X172312847Y-97743579D01*
X172300000Y-97741024D01*
X172287828Y-97743445D01*
X172274983Y-97746000D01*
X172200894Y-97760737D01*
X172116876Y-97816876D01*
X172060737Y-97900894D01*
X172041024Y-98000000D01*
X172043445Y-98012170D01*
X172043579Y-98012844D01*
X172046000Y-98037425D01*
X172046000Y-101962575D01*
X172043579Y-101987153D01*
X172041024Y-102000000D01*
X172046000Y-102025017D01*
X172060737Y-102099106D01*
X172116876Y-102183124D01*
X172200894Y-102239263D01*
X172300000Y-102258976D01*
X172312847Y-102256421D01*
X172337425Y-102254000D01*
X173120000Y-102254000D01*
X173188121Y-102274002D01*
X173234614Y-102327658D01*
X173246000Y-102380000D01*
X173246000Y-106620000D01*
X173225998Y-106688121D01*
X173172342Y-106734614D01*
X173120000Y-106746000D01*
X155584033Y-106746000D01*
X155515912Y-106725998D01*
X155469419Y-106672342D01*
X155459315Y-106602068D01*
X155493549Y-106532315D01*
X155624969Y-106396701D01*
X155624971Y-106396698D01*
X155628871Y-106392674D01*
X155655312Y-106353326D01*
X155750641Y-106211460D01*
X155750643Y-106211457D01*
X155753770Y-106206803D01*
X155814834Y-106067697D01*
X155841525Y-106006894D01*
X155841526Y-106006892D01*
X155843782Y-106001752D01*
X155884722Y-105831223D01*
X155894749Y-105789459D01*
X155894749Y-105789458D01*
X155896059Y-105784002D01*
X155904387Y-105639564D01*
X155908626Y-105566043D01*
X155908626Y-105566040D01*
X155908949Y-105560436D01*
X155882046Y-105338120D01*
X155816200Y-105124083D01*
X155810897Y-105113807D01*
X155800207Y-105093096D01*
X157691229Y-105093096D01*
X157692063Y-105100646D01*
X157702271Y-105193106D01*
X157708613Y-105250553D01*
X157711223Y-105257684D01*
X157711223Y-105257686D01*
X157742697Y-105343692D01*
X157763053Y-105399319D01*
X157767289Y-105405622D01*
X157767289Y-105405623D01*
X157821210Y-105485865D01*
X157851408Y-105530805D01*
X157857027Y-105535918D01*
X157857028Y-105535919D01*
X157956688Y-105626602D01*
X157968576Y-105637419D01*
X158107793Y-105713008D01*
X158261022Y-105753207D01*
X158344977Y-105754526D01*
X158411819Y-105755576D01*
X158411822Y-105755576D01*
X158419416Y-105755695D01*
X158573832Y-105720329D01*
X158654100Y-105679959D01*
X158708572Y-105652563D01*
X158708575Y-105652561D01*
X158715355Y-105649151D01*
X158721126Y-105644222D01*
X158721129Y-105644220D01*
X158830036Y-105551204D01*
X158830036Y-105551203D01*
X158835814Y-105546269D01*
X158928255Y-105417624D01*
X158987342Y-105270641D01*
X159008752Y-105120202D01*
X159019996Y-105095487D01*
X162437500Y-105095487D01*
X162438872Y-105101939D01*
X162438872Y-105101944D01*
X162457353Y-105188888D01*
X162477206Y-105282288D01*
X162479891Y-105288318D01*
X162479891Y-105288319D01*
X162539233Y-105421603D01*
X162554882Y-105456752D01*
X162558762Y-105462093D01*
X162558763Y-105462094D01*
X162576034Y-105485865D01*
X162667134Y-105611253D01*
X162672044Y-105615674D01*
X162672045Y-105615675D01*
X162785568Y-105717891D01*
X162809056Y-105739040D01*
X162974444Y-105834527D01*
X163156072Y-105893542D01*
X163162633Y-105894232D01*
X163162635Y-105894232D01*
X163215889Y-105899829D01*
X163298390Y-105908500D01*
X164701610Y-105908500D01*
X164784111Y-105899829D01*
X164837365Y-105894232D01*
X164837367Y-105894232D01*
X164843928Y-105893542D01*
X165025556Y-105834527D01*
X165190944Y-105739040D01*
X165214433Y-105717891D01*
X165327955Y-105615675D01*
X165327956Y-105615674D01*
X165332866Y-105611253D01*
X165423966Y-105485865D01*
X165441237Y-105462094D01*
X165441238Y-105462093D01*
X165445118Y-105456752D01*
X165460768Y-105421603D01*
X165520109Y-105288319D01*
X165520109Y-105288318D01*
X165522794Y-105282288D01*
X165542647Y-105188888D01*
X165561128Y-105101944D01*
X165561128Y-105101939D01*
X165562500Y-105095487D01*
X165562500Y-104952019D01*
X168141801Y-104952019D01*
X168142158Y-104958836D01*
X168142158Y-104958840D01*
X168150077Y-105109920D01*
X168151518Y-105137424D01*
X168153328Y-105143996D01*
X168153329Y-105144001D01*
X168199008Y-105309835D01*
X168200821Y-105316417D01*
X168287410Y-105480648D01*
X168407245Y-105622454D01*
X168412668Y-105626601D01*
X168412670Y-105626602D01*
X168549315Y-105731075D01*
X168549319Y-105731077D01*
X168554736Y-105735219D01*
X168560916Y-105738101D01*
X168560918Y-105738102D01*
X168716823Y-105810802D01*
X168716826Y-105810803D01*
X168723000Y-105813682D01*
X168729648Y-105815168D01*
X168729651Y-105815169D01*
X168825391Y-105836569D01*
X168904188Y-105854182D01*
X168909876Y-105854500D01*
X169046385Y-105854500D01*
X169184573Y-105839488D01*
X169349446Y-105784002D01*
X169354064Y-105782448D01*
X169354066Y-105782447D01*
X169360535Y-105780270D01*
X169519677Y-105684649D01*
X169524634Y-105679961D01*
X169524637Y-105679959D01*
X169649614Y-105561773D01*
X169649616Y-105561771D01*
X169654572Y-105557084D01*
X169758928Y-105403529D01*
X169762521Y-105394546D01*
X169825342Y-105237484D01*
X169825343Y-105237479D01*
X169827876Y-105231147D01*
X169828990Y-105224420D01*
X169828991Y-105224415D01*
X169857084Y-105054718D01*
X169857084Y-105054715D01*
X169858199Y-105047981D01*
X169854417Y-104975807D01*
X169853170Y-104952019D01*
X170641801Y-104952019D01*
X170642158Y-104958836D01*
X170642158Y-104958840D01*
X170650077Y-105109920D01*
X170651518Y-105137424D01*
X170653328Y-105143996D01*
X170653329Y-105144001D01*
X170699008Y-105309835D01*
X170700821Y-105316417D01*
X170787410Y-105480648D01*
X170907245Y-105622454D01*
X170912668Y-105626601D01*
X170912670Y-105626602D01*
X171049315Y-105731075D01*
X171049319Y-105731077D01*
X171054736Y-105735219D01*
X171060916Y-105738101D01*
X171060918Y-105738102D01*
X171216823Y-105810802D01*
X171216826Y-105810803D01*
X171223000Y-105813682D01*
X171229648Y-105815168D01*
X171229651Y-105815169D01*
X171325391Y-105836569D01*
X171404188Y-105854182D01*
X171409876Y-105854500D01*
X171546385Y-105854500D01*
X171684573Y-105839488D01*
X171849446Y-105784002D01*
X171854064Y-105782448D01*
X171854066Y-105782447D01*
X171860535Y-105780270D01*
X172019677Y-105684649D01*
X172024634Y-105679961D01*
X172024637Y-105679959D01*
X172149614Y-105561773D01*
X172149616Y-105561771D01*
X172154572Y-105557084D01*
X172258928Y-105403529D01*
X172262521Y-105394546D01*
X172325342Y-105237484D01*
X172325343Y-105237479D01*
X172327876Y-105231147D01*
X172328990Y-105224420D01*
X172328991Y-105224415D01*
X172357084Y-105054718D01*
X172357084Y-105054715D01*
X172358199Y-105047981D01*
X172354417Y-104975807D01*
X172348839Y-104869389D01*
X172348482Y-104862576D01*
X172346672Y-104856004D01*
X172346671Y-104855999D01*
X172300992Y-104690165D01*
X172299179Y-104683583D01*
X172212590Y-104519352D01*
X172092755Y-104377546D01*
X172087330Y-104373398D01*
X171950685Y-104268925D01*
X171950681Y-104268923D01*
X171945264Y-104264781D01*
X171939084Y-104261899D01*
X171939082Y-104261898D01*
X171783177Y-104189198D01*
X171783174Y-104189197D01*
X171777000Y-104186318D01*
X171770352Y-104184832D01*
X171770349Y-104184831D01*
X171600849Y-104146944D01*
X171600850Y-104146944D01*
X171595812Y-104145818D01*
X171590124Y-104145500D01*
X171453615Y-104145500D01*
X171315427Y-104160512D01*
X171230189Y-104189198D01*
X171145936Y-104217552D01*
X171145934Y-104217553D01*
X171139465Y-104219730D01*
X170980323Y-104315351D01*
X170975366Y-104320039D01*
X170975363Y-104320041D01*
X170867714Y-104421841D01*
X170845428Y-104442916D01*
X170741072Y-104596471D01*
X170738539Y-104602805D01*
X170738537Y-104602808D01*
X170674658Y-104762516D01*
X170674657Y-104762521D01*
X170672124Y-104768853D01*
X170671010Y-104775580D01*
X170671009Y-104775585D01*
X170642916Y-104945282D01*
X170641801Y-104952019D01*
X169853170Y-104952019D01*
X169848839Y-104869389D01*
X169848482Y-104862576D01*
X169846672Y-104856004D01*
X169846671Y-104855999D01*
X169800992Y-104690165D01*
X169799179Y-104683583D01*
X169712590Y-104519352D01*
X169592755Y-104377546D01*
X169587330Y-104373398D01*
X169450685Y-104268925D01*
X169450681Y-104268923D01*
X169445264Y-104264781D01*
X169439084Y-104261899D01*
X169439082Y-104261898D01*
X169283177Y-104189198D01*
X169283174Y-104189197D01*
X169277000Y-104186318D01*
X169270352Y-104184832D01*
X169270349Y-104184831D01*
X169100849Y-104146944D01*
X169100850Y-104146944D01*
X169095812Y-104145818D01*
X169090124Y-104145500D01*
X168953615Y-104145500D01*
X168815427Y-104160512D01*
X168730189Y-104189198D01*
X168645936Y-104217552D01*
X168645934Y-104217553D01*
X168639465Y-104219730D01*
X168480323Y-104315351D01*
X168475366Y-104320039D01*
X168475363Y-104320041D01*
X168367714Y-104421841D01*
X168345428Y-104442916D01*
X168241072Y-104596471D01*
X168238539Y-104602805D01*
X168238537Y-104602808D01*
X168174658Y-104762516D01*
X168174657Y-104762521D01*
X168172124Y-104768853D01*
X168171010Y-104775580D01*
X168171009Y-104775585D01*
X168142916Y-104945282D01*
X168141801Y-104952019D01*
X165562500Y-104952019D01*
X165562500Y-104904513D01*
X165561117Y-104898003D01*
X165540986Y-104803299D01*
X165522794Y-104717712D01*
X165518123Y-104707220D01*
X165447803Y-104549278D01*
X165447802Y-104549276D01*
X165445118Y-104543248D01*
X165427757Y-104519352D01*
X165354081Y-104417947D01*
X165332866Y-104388747D01*
X165319833Y-104377012D01*
X165195852Y-104265379D01*
X165195851Y-104265378D01*
X165190944Y-104260960D01*
X165025556Y-104165473D01*
X164843928Y-104106458D01*
X164837367Y-104105768D01*
X164837365Y-104105768D01*
X164776004Y-104099319D01*
X164701610Y-104091500D01*
X163298390Y-104091500D01*
X163223996Y-104099319D01*
X163162635Y-104105768D01*
X163162633Y-104105768D01*
X163156072Y-104106458D01*
X162974444Y-104165473D01*
X162809056Y-104260960D01*
X162804149Y-104265378D01*
X162804148Y-104265379D01*
X162680167Y-104377012D01*
X162667134Y-104388747D01*
X162645919Y-104417947D01*
X162572244Y-104519352D01*
X162554882Y-104543248D01*
X162552198Y-104549276D01*
X162552197Y-104549278D01*
X162481877Y-104707220D01*
X162477206Y-104717712D01*
X162459014Y-104803299D01*
X162438884Y-104898003D01*
X162437500Y-104904513D01*
X162437500Y-105095487D01*
X159019996Y-105095487D01*
X159038152Y-105055579D01*
X159044400Y-105048860D01*
X159112194Y-104981066D01*
X159123283Y-104971211D01*
X159138975Y-104958840D01*
X159150242Y-104949958D01*
X159183925Y-104901223D01*
X159186207Y-104898030D01*
X159221392Y-104850393D01*
X159223806Y-104843520D01*
X159227947Y-104837528D01*
X159245812Y-104781039D01*
X159247063Y-104777290D01*
X159250026Y-104768853D01*
X159266676Y-104721443D01*
X159266959Y-104714239D01*
X159266992Y-104714068D01*
X159269158Y-104707220D01*
X159269683Y-104700549D01*
X159269683Y-104647379D01*
X159269780Y-104642433D01*
X159271337Y-104602808D01*
X159272041Y-104584880D01*
X159270144Y-104577725D01*
X159269683Y-104569350D01*
X159269683Y-101485148D01*
X159289685Y-101417027D01*
X159298591Y-101405489D01*
X159300497Y-101403861D01*
X159392938Y-101275216D01*
X159452025Y-101128233D01*
X159474345Y-100971399D01*
X159474490Y-100957592D01*
X159455459Y-100800325D01*
X159399463Y-100652138D01*
X159361368Y-100596709D01*
X159314038Y-100527843D01*
X159314037Y-100527841D01*
X159309736Y-100521584D01*
X159191458Y-100416203D01*
X159184072Y-100412292D01*
X159115624Y-100376051D01*
X159051457Y-100342076D01*
X158897816Y-100303484D01*
X158890217Y-100303444D01*
X158890216Y-100303444D01*
X158824364Y-100303099D01*
X158739404Y-100302654D01*
X158732024Y-100304426D01*
X158732022Y-100304426D01*
X158592746Y-100337863D01*
X158592743Y-100337864D01*
X158585367Y-100339635D01*
X158444597Y-100412292D01*
X158325222Y-100516430D01*
X158234133Y-100646036D01*
X158219040Y-100684748D01*
X158188581Y-100762872D01*
X158176589Y-100793629D01*
X158175597Y-100801162D01*
X158175597Y-100801163D01*
X158167732Y-100860908D01*
X158155912Y-100950688D01*
X158160567Y-100992852D01*
X158169901Y-101077390D01*
X158173296Y-101108145D01*
X158227736Y-101256911D01*
X158316091Y-101388397D01*
X158321710Y-101393510D01*
X158326672Y-101399258D01*
X158325064Y-101400646D01*
X158356407Y-101452132D01*
X158360683Y-101484677D01*
X158360683Y-104325094D01*
X158340681Y-104393215D01*
X158287025Y-104439708D01*
X158264101Y-104447612D01*
X158200438Y-104462896D01*
X158128063Y-104480271D01*
X158128060Y-104480272D01*
X158120684Y-104482043D01*
X157979914Y-104554700D01*
X157860539Y-104658838D01*
X157769450Y-104788444D01*
X157747977Y-104843520D01*
X157716175Y-104925088D01*
X157711906Y-104936037D01*
X157710914Y-104943570D01*
X157710914Y-104943571D01*
X157692363Y-105084484D01*
X157691229Y-105093096D01*
X155800207Y-105093096D01*
X155716063Y-104930071D01*
X155716063Y-104930070D01*
X155713491Y-104925088D01*
X155577167Y-104747427D01*
X155573021Y-104743654D01*
X155573016Y-104743649D01*
X155415689Y-104600493D01*
X155411536Y-104596714D01*
X155221833Y-104477714D01*
X155135271Y-104442916D01*
X155019262Y-104396281D01*
X155014056Y-104394188D01*
X155008564Y-104393051D01*
X155008562Y-104393050D01*
X154857754Y-104361819D01*
X154794772Y-104348776D01*
X154790161Y-104348510D01*
X154790160Y-104348510D01*
X154739775Y-104345605D01*
X154739771Y-104345605D01*
X154737952Y-104345500D01*
X152093181Y-104345500D01*
X152090394Y-104345749D01*
X152090388Y-104345749D01*
X152021038Y-104351939D01*
X151926949Y-104360336D01*
X151710949Y-104419427D01*
X151705891Y-104421839D01*
X151705887Y-104421841D01*
X151513893Y-104513417D01*
X151508826Y-104515834D01*
X151504265Y-104519111D01*
X151504264Y-104519112D01*
X151391011Y-104600493D01*
X151326970Y-104646511D01*
X151296897Y-104677544D01*
X151195451Y-104782228D01*
X151171129Y-104807326D01*
X151168001Y-104811981D01*
X151054382Y-104981066D01*
X151046230Y-104993197D01*
X150956218Y-105198248D01*
X150954908Y-105203705D01*
X150906935Y-105403529D01*
X150903941Y-105415998D01*
X150903618Y-105421603D01*
X150892038Y-105622454D01*
X150891051Y-105639564D01*
X150917954Y-105861880D01*
X150983800Y-106075917D01*
X150986370Y-106080897D01*
X150986372Y-106080901D01*
X151048703Y-106201665D01*
X151086509Y-106274912D01*
X151222833Y-106452573D01*
X151226979Y-106456346D01*
X151226984Y-106456351D01*
X151304415Y-106526807D01*
X151341337Y-106587447D01*
X151339614Y-106658422D01*
X151299792Y-106717199D01*
X151234514Y-106745116D01*
X151219615Y-106746000D01*
X128880000Y-106746000D01*
X128811879Y-106725998D01*
X128765386Y-106672342D01*
X128754000Y-106620000D01*
X128754000Y-104952019D01*
X129641801Y-104952019D01*
X129642158Y-104958836D01*
X129642158Y-104958840D01*
X129650077Y-105109920D01*
X129651518Y-105137424D01*
X129653328Y-105143996D01*
X129653329Y-105144001D01*
X129699008Y-105309835D01*
X129700821Y-105316417D01*
X129787410Y-105480648D01*
X129907245Y-105622454D01*
X129912668Y-105626601D01*
X129912670Y-105626602D01*
X130049315Y-105731075D01*
X130049319Y-105731077D01*
X130054736Y-105735219D01*
X130060916Y-105738101D01*
X130060918Y-105738102D01*
X130216823Y-105810802D01*
X130216826Y-105810803D01*
X130223000Y-105813682D01*
X130229648Y-105815168D01*
X130229651Y-105815169D01*
X130325391Y-105836569D01*
X130404188Y-105854182D01*
X130409876Y-105854500D01*
X130546385Y-105854500D01*
X130684573Y-105839488D01*
X130849446Y-105784002D01*
X130854064Y-105782448D01*
X130854066Y-105782447D01*
X130860535Y-105780270D01*
X131019677Y-105684649D01*
X131024634Y-105679961D01*
X131024637Y-105679959D01*
X131149614Y-105561773D01*
X131149616Y-105561771D01*
X131154572Y-105557084D01*
X131258928Y-105403529D01*
X131262521Y-105394546D01*
X131325342Y-105237484D01*
X131325343Y-105237479D01*
X131327876Y-105231147D01*
X131328990Y-105224420D01*
X131328991Y-105224415D01*
X131357084Y-105054718D01*
X131357084Y-105054715D01*
X131358199Y-105047981D01*
X131354417Y-104975807D01*
X131353170Y-104952019D01*
X132141801Y-104952019D01*
X132142158Y-104958836D01*
X132142158Y-104958840D01*
X132150077Y-105109920D01*
X132151518Y-105137424D01*
X132153328Y-105143996D01*
X132153329Y-105144001D01*
X132199008Y-105309835D01*
X132200821Y-105316417D01*
X132287410Y-105480648D01*
X132407245Y-105622454D01*
X132412668Y-105626601D01*
X132412670Y-105626602D01*
X132549315Y-105731075D01*
X132549319Y-105731077D01*
X132554736Y-105735219D01*
X132560916Y-105738101D01*
X132560918Y-105738102D01*
X132716823Y-105810802D01*
X132716826Y-105810803D01*
X132723000Y-105813682D01*
X132729648Y-105815168D01*
X132729651Y-105815169D01*
X132825391Y-105836569D01*
X132904188Y-105854182D01*
X132909876Y-105854500D01*
X133046385Y-105854500D01*
X133184573Y-105839488D01*
X133349446Y-105784002D01*
X133354064Y-105782448D01*
X133354066Y-105782447D01*
X133360535Y-105780270D01*
X133519677Y-105684649D01*
X133524634Y-105679961D01*
X133524637Y-105679959D01*
X133649614Y-105561773D01*
X133649616Y-105561771D01*
X133654572Y-105557084D01*
X133758928Y-105403529D01*
X133762521Y-105394546D01*
X133825342Y-105237484D01*
X133825343Y-105237479D01*
X133827876Y-105231147D01*
X133828990Y-105224420D01*
X133828991Y-105224415D01*
X133850335Y-105095487D01*
X136437500Y-105095487D01*
X136438872Y-105101939D01*
X136438872Y-105101944D01*
X136457353Y-105188888D01*
X136477206Y-105282288D01*
X136479891Y-105288318D01*
X136479891Y-105288319D01*
X136539233Y-105421603D01*
X136554882Y-105456752D01*
X136558762Y-105462093D01*
X136558763Y-105462094D01*
X136576034Y-105485865D01*
X136667134Y-105611253D01*
X136672044Y-105615674D01*
X136672045Y-105615675D01*
X136785568Y-105717891D01*
X136809056Y-105739040D01*
X136974444Y-105834527D01*
X137156072Y-105893542D01*
X137162633Y-105894232D01*
X137162635Y-105894232D01*
X137215889Y-105899829D01*
X137298390Y-105908500D01*
X138701610Y-105908500D01*
X138784111Y-105899829D01*
X138837365Y-105894232D01*
X138837367Y-105894232D01*
X138843928Y-105893542D01*
X139025556Y-105834527D01*
X139190944Y-105739040D01*
X139214433Y-105717891D01*
X139327955Y-105615675D01*
X139327956Y-105615674D01*
X139332866Y-105611253D01*
X139423966Y-105485865D01*
X139441237Y-105462094D01*
X139441238Y-105462093D01*
X139445118Y-105456752D01*
X139460768Y-105421603D01*
X139520109Y-105288319D01*
X139520109Y-105288318D01*
X139522794Y-105282288D01*
X139542647Y-105188888D01*
X139561128Y-105101944D01*
X139561128Y-105101939D01*
X139562500Y-105095487D01*
X139562500Y-104904513D01*
X139561117Y-104898003D01*
X139540986Y-104803299D01*
X139522794Y-104717712D01*
X139518123Y-104707220D01*
X139447803Y-104549278D01*
X139447802Y-104549276D01*
X139445118Y-104543248D01*
X139427757Y-104519352D01*
X139354081Y-104417947D01*
X139332866Y-104388747D01*
X139319833Y-104377012D01*
X139195852Y-104265379D01*
X139195851Y-104265378D01*
X139190944Y-104260960D01*
X139025556Y-104165473D01*
X138843928Y-104106458D01*
X138837367Y-104105768D01*
X138837365Y-104105768D01*
X138776004Y-104099319D01*
X138701610Y-104091500D01*
X137298390Y-104091500D01*
X137223996Y-104099319D01*
X137162635Y-104105768D01*
X137162633Y-104105768D01*
X137156072Y-104106458D01*
X136974444Y-104165473D01*
X136809056Y-104260960D01*
X136804149Y-104265378D01*
X136804148Y-104265379D01*
X136680167Y-104377012D01*
X136667134Y-104388747D01*
X136645919Y-104417947D01*
X136572244Y-104519352D01*
X136554882Y-104543248D01*
X136552198Y-104549276D01*
X136552197Y-104549278D01*
X136481877Y-104707220D01*
X136477206Y-104717712D01*
X136459014Y-104803299D01*
X136438884Y-104898003D01*
X136437500Y-104904513D01*
X136437500Y-105095487D01*
X133850335Y-105095487D01*
X133857084Y-105054718D01*
X133857084Y-105054715D01*
X133858199Y-105047981D01*
X133854417Y-104975807D01*
X133848839Y-104869389D01*
X133848482Y-104862576D01*
X133846672Y-104856004D01*
X133846671Y-104855999D01*
X133800992Y-104690165D01*
X133799179Y-104683583D01*
X133712590Y-104519352D01*
X133592755Y-104377546D01*
X133587330Y-104373398D01*
X133450685Y-104268925D01*
X133450681Y-104268923D01*
X133445264Y-104264781D01*
X133439084Y-104261899D01*
X133439082Y-104261898D01*
X133283177Y-104189198D01*
X133283174Y-104189197D01*
X133277000Y-104186318D01*
X133270352Y-104184832D01*
X133270349Y-104184831D01*
X133100849Y-104146944D01*
X133100850Y-104146944D01*
X133095812Y-104145818D01*
X133090124Y-104145500D01*
X132953615Y-104145500D01*
X132815427Y-104160512D01*
X132730189Y-104189198D01*
X132645936Y-104217552D01*
X132645934Y-104217553D01*
X132639465Y-104219730D01*
X132480323Y-104315351D01*
X132475366Y-104320039D01*
X132475363Y-104320041D01*
X132367714Y-104421841D01*
X132345428Y-104442916D01*
X132241072Y-104596471D01*
X132238539Y-104602805D01*
X132238537Y-104602808D01*
X132174658Y-104762516D01*
X132174657Y-104762521D01*
X132172124Y-104768853D01*
X132171010Y-104775580D01*
X132171009Y-104775585D01*
X132142916Y-104945282D01*
X132141801Y-104952019D01*
X131353170Y-104952019D01*
X131348839Y-104869389D01*
X131348482Y-104862576D01*
X131346672Y-104856004D01*
X131346671Y-104855999D01*
X131300992Y-104690165D01*
X131299179Y-104683583D01*
X131212590Y-104519352D01*
X131092755Y-104377546D01*
X131087330Y-104373398D01*
X130950685Y-104268925D01*
X130950681Y-104268923D01*
X130945264Y-104264781D01*
X130939084Y-104261899D01*
X130939082Y-104261898D01*
X130783177Y-104189198D01*
X130783174Y-104189197D01*
X130777000Y-104186318D01*
X130770352Y-104184832D01*
X130770349Y-104184831D01*
X130600849Y-104146944D01*
X130600850Y-104146944D01*
X130595812Y-104145818D01*
X130590124Y-104145500D01*
X130453615Y-104145500D01*
X130315427Y-104160512D01*
X130230189Y-104189198D01*
X130145936Y-104217552D01*
X130145934Y-104217553D01*
X130139465Y-104219730D01*
X129980323Y-104315351D01*
X129975366Y-104320039D01*
X129975363Y-104320041D01*
X129867714Y-104421841D01*
X129845428Y-104442916D01*
X129741072Y-104596471D01*
X129738539Y-104602805D01*
X129738537Y-104602808D01*
X129674658Y-104762516D01*
X129674657Y-104762521D01*
X129672124Y-104768853D01*
X129671010Y-104775580D01*
X129671009Y-104775585D01*
X129642916Y-104945282D01*
X129641801Y-104952019D01*
X128754000Y-104952019D01*
X128754000Y-103793096D01*
X141340729Y-103793096D01*
X141358113Y-103950553D01*
X141360723Y-103957684D01*
X141360723Y-103957686D01*
X141409818Y-104091844D01*
X141412553Y-104099319D01*
X141416789Y-104105622D01*
X141416789Y-104105623D01*
X141455635Y-104163431D01*
X141500908Y-104230805D01*
X141538905Y-104265379D01*
X141588276Y-104310303D01*
X141615291Y-104345415D01*
X141623042Y-104360336D01*
X141628148Y-104370166D01*
X141632494Y-104375254D01*
X142908248Y-105651008D01*
X142942274Y-105713320D01*
X142944392Y-105726276D01*
X142956973Y-105840225D01*
X142958113Y-105850553D01*
X142960723Y-105857684D01*
X142960723Y-105857686D01*
X142973845Y-105893542D01*
X143012553Y-105999319D01*
X143100908Y-106130805D01*
X143106527Y-106135918D01*
X143106528Y-106135919D01*
X143184429Y-106206803D01*
X143218076Y-106237419D01*
X143357293Y-106313008D01*
X143510522Y-106353207D01*
X143594477Y-106354526D01*
X143661319Y-106355576D01*
X143661322Y-106355576D01*
X143668916Y-106355695D01*
X143823332Y-106320329D01*
X143904791Y-106279360D01*
X143958072Y-106252563D01*
X143958075Y-106252561D01*
X143964855Y-106249151D01*
X143970626Y-106244222D01*
X143970629Y-106244220D01*
X144079536Y-106151204D01*
X144079536Y-106151203D01*
X144085314Y-106146269D01*
X144177755Y-106017624D01*
X144236842Y-105870641D01*
X144255571Y-105739040D01*
X144258581Y-105717891D01*
X144258581Y-105717888D01*
X144259162Y-105713807D01*
X144259307Y-105700000D01*
X144240276Y-105542733D01*
X144184280Y-105394546D01*
X144145500Y-105338120D01*
X144098855Y-105270251D01*
X144098854Y-105270249D01*
X144094553Y-105263992D01*
X143976275Y-105158611D01*
X143836274Y-105084484D01*
X143682633Y-105045892D01*
X143675034Y-105045852D01*
X143675033Y-105045852D01*
X143639959Y-105045668D01*
X143571944Y-105025309D01*
X143551525Y-105008765D01*
X142660307Y-104117547D01*
X142626281Y-104055235D01*
X142632190Y-103985066D01*
X142632042Y-103985026D01*
X142632263Y-103984202D01*
X142632494Y-103981457D01*
X142634007Y-103977694D01*
X142634008Y-103977691D01*
X142636842Y-103970641D01*
X142659162Y-103813807D01*
X142659307Y-103800000D01*
X142640276Y-103642733D01*
X142584280Y-103494546D01*
X142494553Y-103363992D01*
X142376275Y-103258611D01*
X142368889Y-103254700D01*
X142242988Y-103188039D01*
X142242989Y-103188039D01*
X142236274Y-103184484D01*
X142082633Y-103145892D01*
X142075034Y-103145852D01*
X142075033Y-103145852D01*
X142009181Y-103145507D01*
X141924221Y-103145062D01*
X141916841Y-103146834D01*
X141916839Y-103146834D01*
X141777563Y-103180271D01*
X141777560Y-103180272D01*
X141770184Y-103182043D01*
X141629414Y-103254700D01*
X141510039Y-103358838D01*
X141418950Y-103488444D01*
X141361406Y-103636037D01*
X141340729Y-103793096D01*
X128754000Y-103793096D01*
X128754000Y-102380000D01*
X128774002Y-102311879D01*
X128827658Y-102265386D01*
X128880000Y-102254000D01*
X129662575Y-102254000D01*
X129687153Y-102256421D01*
X129700000Y-102258976D01*
X129799106Y-102239263D01*
X129883124Y-102183124D01*
X129939263Y-102099106D01*
X129954000Y-102025017D01*
X129958976Y-102000000D01*
X129956421Y-101987153D01*
X129954531Y-101967966D01*
X150768257Y-101967966D01*
X150798565Y-102102446D01*
X150801645Y-102112275D01*
X150881770Y-102309603D01*
X150886413Y-102318794D01*
X150997694Y-102500388D01*
X151003777Y-102508699D01*
X151143213Y-102669667D01*
X151150580Y-102676883D01*
X151314434Y-102812916D01*
X151322881Y-102818831D01*
X151506756Y-102926279D01*
X151516042Y-102930729D01*
X151715001Y-103006703D01*
X151724899Y-103009579D01*
X151828250Y-103030606D01*
X151842299Y-103029410D01*
X151846000Y-103019064D01*
X151846000Y-103018517D01*
X152354000Y-103018517D01*
X152358064Y-103032359D01*
X152371478Y-103034393D01*
X152378184Y-103033534D01*
X152388262Y-103031392D01*
X152592255Y-102970191D01*
X152601842Y-102966433D01*
X152793095Y-102872739D01*
X152801945Y-102867464D01*
X152975328Y-102743792D01*
X152983200Y-102737139D01*
X153134052Y-102586812D01*
X153140730Y-102578965D01*
X153265003Y-102406020D01*
X153270310Y-102397188D01*
X153296544Y-102344109D01*
X153344658Y-102291903D01*
X153413360Y-102273996D01*
X153480836Y-102296075D01*
X153525664Y-102351129D01*
X153535501Y-102399937D01*
X153535501Y-102575066D01*
X153550266Y-102649301D01*
X153606516Y-102733484D01*
X153690699Y-102789734D01*
X153764933Y-102804500D01*
X154639858Y-102804500D01*
X155515066Y-102804499D01*
X155550818Y-102797388D01*
X155577126Y-102792156D01*
X155577128Y-102792155D01*
X155589301Y-102789734D01*
X155599621Y-102782839D01*
X155599622Y-102782838D01*
X155663168Y-102740377D01*
X155673484Y-102733484D01*
X155729734Y-102649301D01*
X155744500Y-102575067D01*
X155744499Y-100824934D01*
X155729734Y-100750699D01*
X155719391Y-100735219D01*
X155680377Y-100676832D01*
X155673484Y-100666516D01*
X155589301Y-100610266D01*
X155515067Y-100595500D01*
X155220500Y-100595500D01*
X155152379Y-100575498D01*
X155105886Y-100521842D01*
X155094500Y-100469500D01*
X155094500Y-99952019D01*
X163141801Y-99952019D01*
X163151518Y-100137424D01*
X163153328Y-100143996D01*
X163153329Y-100144001D01*
X163199008Y-100309835D01*
X163200821Y-100316417D01*
X163287410Y-100480648D01*
X163407245Y-100622454D01*
X163412668Y-100626601D01*
X163412670Y-100626602D01*
X163549315Y-100731075D01*
X163549319Y-100731077D01*
X163554736Y-100735219D01*
X163560916Y-100738101D01*
X163560918Y-100738102D01*
X163716823Y-100810802D01*
X163716826Y-100810803D01*
X163723000Y-100813682D01*
X163729648Y-100815168D01*
X163729651Y-100815169D01*
X163828711Y-100837311D01*
X163904188Y-100854182D01*
X163909876Y-100854500D01*
X164046385Y-100854500D01*
X164184573Y-100839488D01*
X164322046Y-100793223D01*
X164354064Y-100782448D01*
X164354066Y-100782447D01*
X164360535Y-100780270D01*
X164485344Y-100705278D01*
X167838000Y-100705278D01*
X167838266Y-100711067D01*
X167852034Y-100860908D01*
X167854132Y-100872229D01*
X167908962Y-101066643D01*
X167913087Y-101077390D01*
X168002434Y-101258565D01*
X168008446Y-101268374D01*
X168129304Y-101430225D01*
X168137011Y-101438785D01*
X168285349Y-101575907D01*
X168294474Y-101582908D01*
X168465320Y-101690704D01*
X168475564Y-101695924D01*
X168663197Y-101770782D01*
X168674226Y-101774049D01*
X168728232Y-101784791D01*
X168741106Y-101783639D01*
X168745074Y-101771353D01*
X169254000Y-101771353D01*
X169257806Y-101784315D01*
X169272722Y-101786251D01*
X169296339Y-101782193D01*
X169307459Y-101779213D01*
X169496981Y-101709295D01*
X169507359Y-101704345D01*
X169680967Y-101601059D01*
X169690276Y-101594295D01*
X169842157Y-101461100D01*
X169850067Y-101452765D01*
X169975132Y-101294121D01*
X169981403Y-101284464D01*
X170075454Y-101105702D01*
X170079862Y-101095059D01*
X170139765Y-100902143D01*
X170142155Y-100890899D01*
X170161564Y-100726915D01*
X170162000Y-100719512D01*
X170162000Y-100272115D01*
X170157525Y-100256876D01*
X170156135Y-100255671D01*
X170148452Y-100254000D01*
X169272115Y-100254000D01*
X169256876Y-100258475D01*
X169255671Y-100259865D01*
X169254000Y-100267548D01*
X169254000Y-101771353D01*
X168745074Y-101771353D01*
X168746000Y-101768484D01*
X168746000Y-100272115D01*
X168741525Y-100256876D01*
X168740135Y-100255671D01*
X168732452Y-100254000D01*
X167856115Y-100254000D01*
X167840876Y-100258475D01*
X167839671Y-100259865D01*
X167838000Y-100267548D01*
X167838000Y-100705278D01*
X164485344Y-100705278D01*
X164519677Y-100684649D01*
X164524634Y-100679961D01*
X164524637Y-100679959D01*
X164649614Y-100561773D01*
X164649616Y-100561771D01*
X164654572Y-100557084D01*
X164758928Y-100403529D01*
X164761463Y-100397192D01*
X164825342Y-100237484D01*
X164825343Y-100237479D01*
X164827876Y-100231147D01*
X164828990Y-100224420D01*
X164828991Y-100224415D01*
X164857084Y-100054718D01*
X164857084Y-100054715D01*
X164858199Y-100047981D01*
X164848482Y-99862576D01*
X164846672Y-99856004D01*
X164846671Y-99855999D01*
X164811382Y-99727885D01*
X167838000Y-99727885D01*
X167842475Y-99743124D01*
X167843865Y-99744329D01*
X167851548Y-99746000D01*
X168727885Y-99746000D01*
X168743124Y-99741525D01*
X168744329Y-99740135D01*
X168746000Y-99732452D01*
X168746000Y-99727885D01*
X169254000Y-99727885D01*
X169258475Y-99743124D01*
X169259865Y-99744329D01*
X169267548Y-99746000D01*
X170143885Y-99746000D01*
X170159124Y-99741525D01*
X170160329Y-99740135D01*
X170162000Y-99732452D01*
X170162000Y-99294722D01*
X170161734Y-99288933D01*
X170147966Y-99139092D01*
X170145868Y-99127771D01*
X170091038Y-98933357D01*
X170086913Y-98922610D01*
X169997566Y-98741435D01*
X169991554Y-98731626D01*
X169870696Y-98569775D01*
X169862989Y-98561215D01*
X169714651Y-98424093D01*
X169705526Y-98417092D01*
X169534680Y-98309296D01*
X169524436Y-98304076D01*
X169336803Y-98229218D01*
X169325774Y-98225951D01*
X169271768Y-98215209D01*
X169258894Y-98216361D01*
X169254000Y-98231516D01*
X169254000Y-99727885D01*
X168746000Y-99727885D01*
X168746000Y-98228647D01*
X168742194Y-98215685D01*
X168727278Y-98213749D01*
X168703661Y-98217807D01*
X168692541Y-98220787D01*
X168503019Y-98290705D01*
X168492641Y-98295655D01*
X168319033Y-98398941D01*
X168309724Y-98405705D01*
X168157843Y-98538900D01*
X168149933Y-98547235D01*
X168024868Y-98705879D01*
X168018597Y-98715536D01*
X167924546Y-98894298D01*
X167920138Y-98904941D01*
X167860235Y-99097857D01*
X167857845Y-99109101D01*
X167838436Y-99273085D01*
X167838000Y-99280488D01*
X167838000Y-99727885D01*
X164811382Y-99727885D01*
X164800992Y-99690165D01*
X164799179Y-99683583D01*
X164712590Y-99519352D01*
X164592755Y-99377546D01*
X164587330Y-99373398D01*
X164450685Y-99268925D01*
X164450681Y-99268923D01*
X164445264Y-99264781D01*
X164439084Y-99261899D01*
X164439082Y-99261898D01*
X164283177Y-99189198D01*
X164283174Y-99189197D01*
X164277000Y-99186318D01*
X164270352Y-99184832D01*
X164270349Y-99184831D01*
X164100849Y-99146944D01*
X164100850Y-99146944D01*
X164095812Y-99145818D01*
X164090124Y-99145500D01*
X163953615Y-99145500D01*
X163815427Y-99160512D01*
X163719174Y-99192905D01*
X163645936Y-99217552D01*
X163645934Y-99217553D01*
X163639465Y-99219730D01*
X163480323Y-99315351D01*
X163475366Y-99320039D01*
X163475363Y-99320041D01*
X163350386Y-99438227D01*
X163345428Y-99442916D01*
X163241072Y-99596471D01*
X163238539Y-99602805D01*
X163238537Y-99602808D01*
X163174658Y-99762516D01*
X163174657Y-99762521D01*
X163172124Y-99768853D01*
X163171010Y-99775580D01*
X163171009Y-99775585D01*
X163157697Y-99855999D01*
X163141801Y-99952019D01*
X155094500Y-99952019D01*
X155094500Y-98774464D01*
X155095373Y-98759654D01*
X155099385Y-98725758D01*
X155110317Y-98687319D01*
X155181021Y-98535693D01*
X155181024Y-98535685D01*
X155183347Y-98530703D01*
X155240161Y-98318674D01*
X155259292Y-98100000D01*
X155240161Y-97881326D01*
X155183347Y-97669297D01*
X155139896Y-97576116D01*
X155092905Y-97475341D01*
X155092902Y-97475336D01*
X155090579Y-97470354D01*
X154964674Y-97290543D01*
X154809457Y-97135326D01*
X154804949Y-97132169D01*
X154804946Y-97132167D01*
X154634155Y-97012578D01*
X154634153Y-97012577D01*
X154629646Y-97009421D01*
X154624664Y-97007098D01*
X154624659Y-97007095D01*
X154523884Y-96960104D01*
X154430703Y-96916653D01*
X154218674Y-96859839D01*
X154000000Y-96840708D01*
X153781326Y-96859839D01*
X153569297Y-96916653D01*
X153476116Y-96960104D01*
X153375341Y-97007095D01*
X153375336Y-97007098D01*
X153370354Y-97009421D01*
X153365847Y-97012577D01*
X153365845Y-97012578D01*
X153195054Y-97132167D01*
X153195051Y-97132169D01*
X153190543Y-97135326D01*
X153035326Y-97290543D01*
X152909421Y-97470354D01*
X152907098Y-97475336D01*
X152907095Y-97475341D01*
X152860104Y-97576116D01*
X152816653Y-97669297D01*
X152759839Y-97881326D01*
X152740708Y-98100000D01*
X152759839Y-98318674D01*
X152816653Y-98530703D01*
X152860104Y-98623884D01*
X152907095Y-98724659D01*
X152907098Y-98724664D01*
X152909421Y-98729646D01*
X152912577Y-98734153D01*
X152912578Y-98734155D01*
X153032164Y-98904941D01*
X153035326Y-98909457D01*
X153190543Y-99064674D01*
X153195051Y-99067831D01*
X153195054Y-99067833D01*
X153365845Y-99187422D01*
X153370354Y-99190579D01*
X153375336Y-99192902D01*
X153375341Y-99192905D01*
X153440413Y-99223248D01*
X153569297Y-99283347D01*
X153781326Y-99340161D01*
X154000000Y-99359292D01*
X154005475Y-99358813D01*
X154005486Y-99358813D01*
X154048518Y-99355048D01*
X154118123Y-99369036D01*
X154169115Y-99418435D01*
X154185500Y-99480568D01*
X154185500Y-100469501D01*
X154165498Y-100537622D01*
X154111842Y-100584115D01*
X154059500Y-100595501D01*
X153764934Y-100595501D01*
X153729182Y-100602612D01*
X153702874Y-100607844D01*
X153702872Y-100607845D01*
X153690699Y-100610266D01*
X153680379Y-100617161D01*
X153680378Y-100617162D01*
X153637166Y-100646036D01*
X153606516Y-100666516D01*
X153599623Y-100676832D01*
X153563379Y-100731075D01*
X153550266Y-100750699D01*
X153535500Y-100824933D01*
X153535500Y-100992852D01*
X153515498Y-101060973D01*
X153461842Y-101107466D01*
X153391568Y-101117570D01*
X153326988Y-101088076D01*
X153301235Y-101055868D01*
X153300912Y-101056077D01*
X153298836Y-101052868D01*
X153298453Y-101052389D01*
X153298099Y-101051729D01*
X153182426Y-100872926D01*
X153176136Y-100864757D01*
X153032806Y-100707240D01*
X153025273Y-100700215D01*
X152858139Y-100568222D01*
X152849552Y-100562517D01*
X152663117Y-100459599D01*
X152653705Y-100455369D01*
X152452959Y-100384280D01*
X152442988Y-100381646D01*
X152371837Y-100368972D01*
X152358540Y-100370432D01*
X152354000Y-100384989D01*
X152354000Y-103018517D01*
X151846000Y-103018517D01*
X151846000Y-101972115D01*
X151841525Y-101956876D01*
X151840135Y-101955671D01*
X151832452Y-101954000D01*
X150783225Y-101954000D01*
X150769694Y-101957973D01*
X150768257Y-101967966D01*
X129954531Y-101967966D01*
X129954000Y-101962575D01*
X129954000Y-100705278D01*
X131838000Y-100705278D01*
X131838266Y-100711067D01*
X131852034Y-100860908D01*
X131854132Y-100872229D01*
X131908962Y-101066643D01*
X131913087Y-101077390D01*
X132002434Y-101258565D01*
X132008446Y-101268374D01*
X132129304Y-101430225D01*
X132137011Y-101438785D01*
X132285349Y-101575907D01*
X132294474Y-101582908D01*
X132465320Y-101690704D01*
X132475564Y-101695924D01*
X132663197Y-101770782D01*
X132674226Y-101774049D01*
X132728232Y-101784791D01*
X132741106Y-101783639D01*
X132745074Y-101771353D01*
X133254000Y-101771353D01*
X133257806Y-101784315D01*
X133272722Y-101786251D01*
X133296339Y-101782193D01*
X133307459Y-101779213D01*
X133496981Y-101709295D01*
X133507359Y-101704345D01*
X133680967Y-101601059D01*
X133690276Y-101594295D01*
X133842157Y-101461100D01*
X133850067Y-101452765D01*
X133864716Y-101434183D01*
X150764389Y-101434183D01*
X150765912Y-101442607D01*
X150778292Y-101446000D01*
X151827885Y-101446000D01*
X151843124Y-101441525D01*
X151844329Y-101440135D01*
X151846000Y-101432452D01*
X151846000Y-100383102D01*
X151842082Y-100369758D01*
X151827806Y-100367771D01*
X151789324Y-100373660D01*
X151779288Y-100376051D01*
X151576868Y-100442212D01*
X151567359Y-100446209D01*
X151378463Y-100544542D01*
X151369738Y-100550036D01*
X151199433Y-100677905D01*
X151191726Y-100684748D01*
X151044590Y-100838717D01*
X151038104Y-100846727D01*
X150918098Y-101022649D01*
X150913000Y-101031623D01*
X150823338Y-101224783D01*
X150819775Y-101234470D01*
X150764389Y-101434183D01*
X133864716Y-101434183D01*
X133975132Y-101294121D01*
X133981403Y-101284464D01*
X134075454Y-101105702D01*
X134079862Y-101095059D01*
X134139765Y-100902143D01*
X134142155Y-100890899D01*
X134161564Y-100726915D01*
X134162000Y-100719512D01*
X134162000Y-100272115D01*
X134157525Y-100256876D01*
X134156135Y-100255671D01*
X134148452Y-100254000D01*
X133272115Y-100254000D01*
X133256876Y-100258475D01*
X133255671Y-100259865D01*
X133254000Y-100267548D01*
X133254000Y-101771353D01*
X132745074Y-101771353D01*
X132746000Y-101768484D01*
X132746000Y-100272115D01*
X132741525Y-100256876D01*
X132740135Y-100255671D01*
X132732452Y-100254000D01*
X131856115Y-100254000D01*
X131840876Y-100258475D01*
X131839671Y-100259865D01*
X131838000Y-100267548D01*
X131838000Y-100705278D01*
X129954000Y-100705278D01*
X129954000Y-99952019D01*
X137141801Y-99952019D01*
X137151518Y-100137424D01*
X137153328Y-100143996D01*
X137153329Y-100144001D01*
X137199008Y-100309835D01*
X137200821Y-100316417D01*
X137287410Y-100480648D01*
X137407245Y-100622454D01*
X137412668Y-100626601D01*
X137412670Y-100626602D01*
X137549315Y-100731075D01*
X137549319Y-100731077D01*
X137554736Y-100735219D01*
X137560916Y-100738101D01*
X137560918Y-100738102D01*
X137716823Y-100810802D01*
X137716826Y-100810803D01*
X137723000Y-100813682D01*
X137729648Y-100815168D01*
X137729651Y-100815169D01*
X137828711Y-100837311D01*
X137904188Y-100854182D01*
X137909876Y-100854500D01*
X138046385Y-100854500D01*
X138184573Y-100839488D01*
X138322046Y-100793223D01*
X138354064Y-100782448D01*
X138354066Y-100782447D01*
X138360535Y-100780270D01*
X138519677Y-100684649D01*
X138524634Y-100679961D01*
X138524637Y-100679959D01*
X138649614Y-100561773D01*
X138649616Y-100561771D01*
X138654572Y-100557084D01*
X138758928Y-100403529D01*
X138761463Y-100397192D01*
X138825342Y-100237484D01*
X138825343Y-100237479D01*
X138827876Y-100231147D01*
X138828990Y-100224420D01*
X138828991Y-100224415D01*
X138857084Y-100054718D01*
X138857084Y-100054715D01*
X138858199Y-100047981D01*
X138848482Y-99862576D01*
X138846672Y-99856004D01*
X138846671Y-99855999D01*
X138800992Y-99690165D01*
X138799179Y-99683583D01*
X138712590Y-99519352D01*
X138592755Y-99377546D01*
X138587330Y-99373398D01*
X138450685Y-99268925D01*
X138450681Y-99268923D01*
X138445264Y-99264781D01*
X138439084Y-99261899D01*
X138439082Y-99261898D01*
X138283177Y-99189198D01*
X138283174Y-99189197D01*
X138277000Y-99186318D01*
X138270352Y-99184832D01*
X138270349Y-99184831D01*
X138100849Y-99146944D01*
X138100850Y-99146944D01*
X138095812Y-99145818D01*
X138090124Y-99145500D01*
X137953615Y-99145500D01*
X137815427Y-99160512D01*
X137719174Y-99192905D01*
X137645936Y-99217552D01*
X137645934Y-99217553D01*
X137639465Y-99219730D01*
X137480323Y-99315351D01*
X137475366Y-99320039D01*
X137475363Y-99320041D01*
X137350386Y-99438227D01*
X137345428Y-99442916D01*
X137241072Y-99596471D01*
X137238539Y-99602805D01*
X137238537Y-99602808D01*
X137174658Y-99762516D01*
X137174657Y-99762521D01*
X137172124Y-99768853D01*
X137171010Y-99775580D01*
X137171009Y-99775585D01*
X137157697Y-99855999D01*
X137141801Y-99952019D01*
X129954000Y-99952019D01*
X129954000Y-99727885D01*
X131838000Y-99727885D01*
X131842475Y-99743124D01*
X131843865Y-99744329D01*
X131851548Y-99746000D01*
X132727885Y-99746000D01*
X132743124Y-99741525D01*
X132744329Y-99740135D01*
X132746000Y-99732452D01*
X132746000Y-99727885D01*
X133254000Y-99727885D01*
X133258475Y-99743124D01*
X133259865Y-99744329D01*
X133267548Y-99746000D01*
X134143885Y-99746000D01*
X134159124Y-99741525D01*
X134160329Y-99740135D01*
X134162000Y-99732452D01*
X134162000Y-99294722D01*
X134161734Y-99288933D01*
X134147966Y-99139092D01*
X134145868Y-99127771D01*
X134091038Y-98933357D01*
X134086913Y-98922610D01*
X133997566Y-98741435D01*
X133991554Y-98731626D01*
X133870696Y-98569775D01*
X133862989Y-98561215D01*
X133714651Y-98424093D01*
X133705526Y-98417092D01*
X133534680Y-98309296D01*
X133524436Y-98304076D01*
X133336803Y-98229218D01*
X133325774Y-98225951D01*
X133271768Y-98215209D01*
X133258894Y-98216361D01*
X133254000Y-98231516D01*
X133254000Y-99727885D01*
X132746000Y-99727885D01*
X132746000Y-98228647D01*
X132742194Y-98215685D01*
X132727278Y-98213749D01*
X132703661Y-98217807D01*
X132692541Y-98220787D01*
X132503019Y-98290705D01*
X132492641Y-98295655D01*
X132319033Y-98398941D01*
X132309724Y-98405705D01*
X132157843Y-98538900D01*
X132149933Y-98547235D01*
X132024868Y-98705879D01*
X132018597Y-98715536D01*
X131924546Y-98894298D01*
X131920138Y-98904941D01*
X131860235Y-99097857D01*
X131857845Y-99109101D01*
X131838436Y-99273085D01*
X131838000Y-99280488D01*
X131838000Y-99727885D01*
X129954000Y-99727885D01*
X129954000Y-98037425D01*
X129956421Y-98012844D01*
X129956555Y-98012170D01*
X129958976Y-98000000D01*
X129939263Y-97900894D01*
X129883124Y-97816876D01*
X129799106Y-97760737D01*
X129725017Y-97746000D01*
X129712172Y-97743445D01*
X129700000Y-97741024D01*
X129687153Y-97743579D01*
X129662575Y-97746000D01*
X128880000Y-97746000D01*
X128811879Y-97725998D01*
X128765386Y-97672342D01*
X128754000Y-97620000D01*
X128754000Y-94952019D01*
X129641801Y-94952019D01*
X129642158Y-94958836D01*
X129642158Y-94958840D01*
X129650077Y-95109920D01*
X129651518Y-95137424D01*
X129653328Y-95143996D01*
X129653329Y-95144001D01*
X129699008Y-95309835D01*
X129700821Y-95316417D01*
X129787410Y-95480648D01*
X129907245Y-95622454D01*
X129912668Y-95626601D01*
X129912670Y-95626602D01*
X130049315Y-95731075D01*
X130049319Y-95731077D01*
X130054736Y-95735219D01*
X130060916Y-95738101D01*
X130060918Y-95738102D01*
X130216823Y-95810802D01*
X130216826Y-95810803D01*
X130223000Y-95813682D01*
X130229648Y-95815168D01*
X130229651Y-95815169D01*
X130325391Y-95836569D01*
X130404188Y-95854182D01*
X130409876Y-95854500D01*
X130546385Y-95854500D01*
X130684573Y-95839488D01*
X130847164Y-95784770D01*
X130854064Y-95782448D01*
X130854066Y-95782447D01*
X130860535Y-95780270D01*
X131019677Y-95684649D01*
X131024634Y-95679961D01*
X131024637Y-95679959D01*
X131149614Y-95561773D01*
X131149616Y-95561771D01*
X131154572Y-95557084D01*
X131258928Y-95403529D01*
X131291355Y-95322456D01*
X131325342Y-95237484D01*
X131325343Y-95237479D01*
X131327876Y-95231147D01*
X131328990Y-95224420D01*
X131328991Y-95224415D01*
X131357084Y-95054718D01*
X131357084Y-95054715D01*
X131358199Y-95047981D01*
X131357294Y-95030703D01*
X131353170Y-94952019D01*
X132141801Y-94952019D01*
X132142158Y-94958836D01*
X132142158Y-94958840D01*
X132150077Y-95109920D01*
X132151518Y-95137424D01*
X132153328Y-95143996D01*
X132153329Y-95144001D01*
X132199008Y-95309835D01*
X132200821Y-95316417D01*
X132287410Y-95480648D01*
X132407245Y-95622454D01*
X132412668Y-95626601D01*
X132412670Y-95626602D01*
X132549315Y-95731075D01*
X132549319Y-95731077D01*
X132554736Y-95735219D01*
X132560916Y-95738101D01*
X132560918Y-95738102D01*
X132716823Y-95810802D01*
X132716826Y-95810803D01*
X132723000Y-95813682D01*
X132729648Y-95815168D01*
X132729651Y-95815169D01*
X132825391Y-95836569D01*
X132904188Y-95854182D01*
X132909876Y-95854500D01*
X133046385Y-95854500D01*
X133184573Y-95839488D01*
X133347164Y-95784770D01*
X133354064Y-95782448D01*
X133354066Y-95782447D01*
X133360535Y-95780270D01*
X133519677Y-95684649D01*
X133524634Y-95679961D01*
X133524637Y-95679959D01*
X133649614Y-95561773D01*
X133649616Y-95561771D01*
X133654572Y-95557084D01*
X133758928Y-95403529D01*
X133791355Y-95322456D01*
X133825342Y-95237484D01*
X133825343Y-95237479D01*
X133827876Y-95231147D01*
X133828990Y-95224420D01*
X133828991Y-95224415D01*
X133850335Y-95095487D01*
X136437500Y-95095487D01*
X136477206Y-95282288D01*
X136479891Y-95288318D01*
X136479891Y-95288319D01*
X136531817Y-95404946D01*
X136554882Y-95456752D01*
X136558762Y-95462093D01*
X136558763Y-95462094D01*
X136576034Y-95485865D01*
X136667134Y-95611253D01*
X136672044Y-95615674D01*
X136672045Y-95615675D01*
X136755235Y-95690579D01*
X136809056Y-95739040D01*
X136974444Y-95834527D01*
X137156072Y-95893542D01*
X137162633Y-95894232D01*
X137162635Y-95894232D01*
X137215889Y-95899829D01*
X137298390Y-95908500D01*
X138701610Y-95908500D01*
X138784111Y-95899829D01*
X138837365Y-95894232D01*
X138837367Y-95894232D01*
X138843928Y-95893542D01*
X139025556Y-95834527D01*
X139190944Y-95739040D01*
X139244766Y-95690579D01*
X139327955Y-95615675D01*
X139327956Y-95615674D01*
X139332866Y-95611253D01*
X139423966Y-95485865D01*
X139441237Y-95462094D01*
X139441238Y-95462093D01*
X139445118Y-95456752D01*
X139468184Y-95404946D01*
X139520109Y-95288319D01*
X139520109Y-95288318D01*
X139522794Y-95282288D01*
X139562500Y-95095487D01*
X139562500Y-94904513D01*
X139522794Y-94717712D01*
X139520109Y-94711681D01*
X139447803Y-94549278D01*
X139447802Y-94549276D01*
X139445118Y-94543248D01*
X139427757Y-94519352D01*
X139336749Y-94394092D01*
X139332866Y-94388747D01*
X139256560Y-94320041D01*
X139195852Y-94265379D01*
X139195851Y-94265378D01*
X139190944Y-94260960D01*
X139059085Y-94184831D01*
X139031279Y-94168777D01*
X139031278Y-94168776D01*
X139025556Y-94165473D01*
X138843928Y-94106458D01*
X138837367Y-94105768D01*
X138837365Y-94105768D01*
X138784111Y-94100171D01*
X138701610Y-94091500D01*
X137298390Y-94091500D01*
X137215889Y-94100171D01*
X137162635Y-94105768D01*
X137162633Y-94105768D01*
X137156072Y-94106458D01*
X136974444Y-94165473D01*
X136968722Y-94168776D01*
X136968721Y-94168777D01*
X136940915Y-94184831D01*
X136809056Y-94260960D01*
X136804149Y-94265378D01*
X136804148Y-94265379D01*
X136743440Y-94320041D01*
X136667134Y-94388747D01*
X136663251Y-94394092D01*
X136572244Y-94519352D01*
X136554882Y-94543248D01*
X136552198Y-94549276D01*
X136552197Y-94549278D01*
X136479891Y-94711681D01*
X136477206Y-94717712D01*
X136437500Y-94904513D01*
X136437500Y-95095487D01*
X133850335Y-95095487D01*
X133857084Y-95054718D01*
X133857084Y-95054715D01*
X133858199Y-95047981D01*
X133857294Y-95030703D01*
X133848839Y-94869389D01*
X133848482Y-94862576D01*
X133846672Y-94856004D01*
X133846671Y-94855999D01*
X133800992Y-94690165D01*
X133799179Y-94683583D01*
X133712590Y-94519352D01*
X133592755Y-94377546D01*
X133587330Y-94373398D01*
X133450685Y-94268925D01*
X133450681Y-94268923D01*
X133445264Y-94264781D01*
X133439084Y-94261899D01*
X133439082Y-94261898D01*
X133283177Y-94189198D01*
X133283174Y-94189197D01*
X133277000Y-94186318D01*
X133270352Y-94184832D01*
X133270349Y-94184831D01*
X133100849Y-94146944D01*
X133100850Y-94146944D01*
X133095812Y-94145818D01*
X133090124Y-94145500D01*
X132953615Y-94145500D01*
X132815427Y-94160512D01*
X132730189Y-94189198D01*
X132645936Y-94217552D01*
X132645934Y-94217553D01*
X132639465Y-94219730D01*
X132480323Y-94315351D01*
X132475366Y-94320039D01*
X132475363Y-94320041D01*
X132397057Y-94394092D01*
X132345428Y-94442916D01*
X132241072Y-94596471D01*
X132238539Y-94602805D01*
X132238537Y-94602808D01*
X132174658Y-94762516D01*
X132174657Y-94762521D01*
X132172124Y-94768853D01*
X132171010Y-94775580D01*
X132171009Y-94775585D01*
X132148572Y-94911116D01*
X132141801Y-94952019D01*
X131353170Y-94952019D01*
X131348839Y-94869389D01*
X131348482Y-94862576D01*
X131346672Y-94856004D01*
X131346671Y-94855999D01*
X131300992Y-94690165D01*
X131299179Y-94683583D01*
X131212590Y-94519352D01*
X131092755Y-94377546D01*
X131087330Y-94373398D01*
X130950685Y-94268925D01*
X130950681Y-94268923D01*
X130945264Y-94264781D01*
X130939084Y-94261899D01*
X130939082Y-94261898D01*
X130783177Y-94189198D01*
X130783174Y-94189197D01*
X130777000Y-94186318D01*
X130770352Y-94184832D01*
X130770349Y-94184831D01*
X130600849Y-94146944D01*
X130600850Y-94146944D01*
X130595812Y-94145818D01*
X130590124Y-94145500D01*
X130453615Y-94145500D01*
X130315427Y-94160512D01*
X130230189Y-94189198D01*
X130145936Y-94217552D01*
X130145934Y-94217553D01*
X130139465Y-94219730D01*
X129980323Y-94315351D01*
X129975366Y-94320039D01*
X129975363Y-94320041D01*
X129897057Y-94394092D01*
X129845428Y-94442916D01*
X129741072Y-94596471D01*
X129738539Y-94602805D01*
X129738537Y-94602808D01*
X129674658Y-94762516D01*
X129674657Y-94762521D01*
X129672124Y-94768853D01*
X129671010Y-94775580D01*
X129671009Y-94775585D01*
X129648572Y-94911116D01*
X129641801Y-94952019D01*
X128754000Y-94952019D01*
X128754000Y-93380000D01*
X128774002Y-93311879D01*
X128827658Y-93265386D01*
X128880000Y-93254000D01*
X150849756Y-93254000D01*
X150917877Y-93274002D01*
G37*
%TD.AperFunction*%
%TD*%
M02*
