M48
; DRILL file {KiCad (6.0.0)} date Fri Feb 18 01:59:26 2022
; FORMAT={-:-/ absolute / metric / decimal}
; #@! TF.CreationDate,2022-02-18T01:59:26+09:00
; #@! TF.GenerationSoftware,Kicad,Pcbnew,(6.0.0)
; #@! TF.FileFunction,MixedPlating,1,2
FMAT,2
METRIC
; #@! TA.AperFunction,Plated,PTH,ViaDrill
T1C0.400
; #@! TA.AperFunction,Plated,PTH,ComponentDrill
T2C0.800
; #@! TA.AperFunction,Plated,PTH,ComponentDrill
T3C1.000
; #@! TA.AperFunction,Plated,PTH,ComponentDrill
T4C1.700
; #@! TA.AperFunction,NonPlated,NPTH,ComponentDrill
T5C1.200
%
G90
G05
T1
X142.0Y-103.8
X143.6Y-105.7
X145.4Y-102.8
X146.7Y-95.0
X147.6Y-101.8
X154.0Y-95.9
X157.7Y-98.6
X158.35Y-105.1
X158.4Y-94.0
X158.815Y-100.958
T3
X151.5Y-94.6
X152.1Y-101.7
X154.0Y-98.1
X154.64Y-101.7
X156.5Y-94.6
T5
X130.5Y-95.0
X130.5Y-105.0
X133.0Y-95.0
X133.0Y-105.0
X138.0Y-100.0
X164.0Y-100.0
X169.0Y-95.0
X169.0Y-105.0
X171.5Y-95.0
X171.5Y-105.0
T2
G00X133.0Y-99.65
M15
G01X133.0Y-100.35
M16
G05
G00X137.65Y-95.0
M15
G01X138.35Y-95.0
M16
G05
G00X137.65Y-105.0
M15
G01X138.35Y-105.0
M16
G05
G00X164.35Y-95.0
M15
G01X163.65Y-95.0
M16
G05
G00X164.35Y-105.0
M15
G01X163.65Y-105.0
M16
G05
G00X169.0Y-100.35
M15
G01X169.0Y-99.65
M16
G05
T4
G00X152.15Y-105.6
M15
G01X154.65Y-105.6
M16
G05
T0
M30
