%TF.GenerationSoftware,KiCad,Pcbnew,(6.0.0)*%
%TF.CreationDate,2022-03-27T18:04:37+09:00*%
%TF.ProjectId,tiny mic pre,74696e79-206d-4696-9320-7072652e6b69,rev?*%
%TF.SameCoordinates,Original*%
%TF.FileFunction,Copper,L1,Top*%
%TF.FilePolarity,Positive*%
%FSLAX46Y46*%
G04 Gerber Fmt 4.6, Leading zero omitted, Abs format (unit mm)*
G04 Created by KiCad (PCBNEW (6.0.0)) date 2022-03-27 18:04:37*
%MOMM*%
%LPD*%
G01*
G04 APERTURE LIST*
G04 Aperture macros list*
%AMRoundRect*
0 Rectangle with rounded corners*
0 $1 Rounding radius*
0 $2 $3 $4 $5 $6 $7 $8 $9 X,Y pos of 4 corners*
0 Add a 4 corners polygon primitive as box body*
4,1,4,$2,$3,$4,$5,$6,$7,$8,$9,$2,$3,0*
0 Add four circle primitives for the rounded corners*
1,1,$1+$1,$2,$3*
1,1,$1+$1,$4,$5*
1,1,$1+$1,$6,$7*
1,1,$1+$1,$8,$9*
0 Add four rect primitives between the rounded corners*
20,1,$1+$1,$2,$3,$4,$5,0*
20,1,$1+$1,$4,$5,$6,$7,0*
20,1,$1+$1,$6,$7,$8,$9,0*
20,1,$1+$1,$8,$9,$2,$3,0*%
G04 Aperture macros list end*
%TA.AperFunction,SMDPad,CuDef*%
%ADD10RoundRect,0.237500X0.300000X0.237500X-0.300000X0.237500X-0.300000X-0.237500X0.300000X-0.237500X0*%
%TD*%
%TA.AperFunction,SMDPad,CuDef*%
%ADD11RoundRect,0.250000X-0.275000X0.400000X-0.275000X-0.400000X0.275000X-0.400000X0.275000X0.400000X0*%
%TD*%
%TA.AperFunction,SMDPad,CuDef*%
%ADD12RoundRect,0.237500X0.250000X0.237500X-0.250000X0.237500X-0.250000X-0.237500X0.250000X-0.237500X0*%
%TD*%
%TA.AperFunction,SMDPad,CuDef*%
%ADD13RoundRect,0.237500X-0.237500X0.250000X-0.237500X-0.250000X0.237500X-0.250000X0.237500X0.250000X0*%
%TD*%
%TA.AperFunction,SMDPad,CuDef*%
%ADD14RoundRect,0.237500X0.237500X-0.250000X0.237500X0.250000X-0.237500X0.250000X-0.237500X-0.250000X0*%
%TD*%
%TA.AperFunction,SMDPad,CuDef*%
%ADD15R,1.500000X0.400000*%
%TD*%
%TA.AperFunction,SMDPad,CuDef*%
%ADD16RoundRect,0.237500X-0.250000X-0.237500X0.250000X-0.237500X0.250000X0.237500X-0.250000X0.237500X0*%
%TD*%
%TA.AperFunction,SMDPad,CuDef*%
%ADD17RoundRect,0.250000X0.400000X0.275000X-0.400000X0.275000X-0.400000X-0.275000X0.400000X-0.275000X0*%
%TD*%
%TA.AperFunction,ComponentPad*%
%ADD18R,1.700000X1.700000*%
%TD*%
%TA.AperFunction,ComponentPad*%
%ADD19O,1.700000X1.700000*%
%TD*%
%TA.AperFunction,SMDPad,CuDef*%
%ADD20RoundRect,0.237500X0.237500X-0.300000X0.237500X0.300000X-0.237500X0.300000X-0.237500X-0.300000X0*%
%TD*%
%TA.AperFunction,SMDPad,CuDef*%
%ADD21RoundRect,0.300000X-1.050000X-0.300000X1.050000X-0.300000X1.050000X0.300000X-1.050000X0.300000X0*%
%TD*%
%TA.AperFunction,ViaPad*%
%ADD22C,0.800000*%
%TD*%
%TA.AperFunction,Conductor*%
%ADD23C,0.400000*%
%TD*%
%TA.AperFunction,Conductor*%
%ADD24C,0.250000*%
%TD*%
G04 APERTURE END LIST*
D10*
%TO.P,C5,1*%
%TO.N,VCC*%
X140062500Y-98900000D03*
%TO.P,C5,2*%
%TO.N,GND*%
X138337500Y-98900000D03*
%TD*%
D11*
%TO.P,C6,1*%
%TO.N,Net-(C6-Pad1)*%
X146800000Y-100625000D03*
%TO.P,C6,2*%
%TO.N,Net-(C6-Pad2)*%
X146800000Y-102575000D03*
%TD*%
D12*
%TO.P,R2,1*%
%TO.N,VCC*%
X143512500Y-98900000D03*
%TO.P,R2,2*%
%TO.N,Net-(C3-Pad1)*%
X141687500Y-98900000D03*
%TD*%
D13*
%TO.P,R1,1*%
%TO.N,VCC*%
X132500000Y-99775000D03*
%TO.P,R1,2*%
%TO.N,Net-(C2-Pad2)*%
X132500000Y-101600000D03*
%TD*%
D14*
%TO.P,R4,1*%
%TO.N,Net-(C2-Pad1)*%
X143300000Y-102712500D03*
%TO.P,R4,2*%
%TO.N,Net-(C4-Pad2)*%
X143300000Y-100887500D03*
%TD*%
D15*
%TO.P,IC1,1,+IN*%
%TO.N,Net-(C3-Pad1)*%
X138570000Y-101450000D03*
%TO.P,IC1,2,V-*%
%TO.N,GND*%
X138570000Y-102100000D03*
%TO.P,IC1,3,-IN*%
%TO.N,Net-(C2-Pad1)*%
X138570000Y-102750000D03*
%TO.P,IC1,4,OUT*%
%TO.N,Net-(C4-Pad2)*%
X141230000Y-102750000D03*
%TO.P,IC1,5,V+*%
%TO.N,VCC*%
X141230000Y-101450000D03*
%TD*%
D14*
%TO.P,R6,1*%
%TO.N,Net-(C6-Pad2)*%
X150700000Y-102612500D03*
%TO.P,R6,2*%
%TO.N,GND*%
X150700000Y-100787500D03*
%TD*%
D16*
%TO.P,R5,1*%
%TO.N,Net-(C4-Pad2)*%
X145187500Y-98900000D03*
%TO.P,R5,2*%
%TO.N,Net-(C6-Pad1)*%
X147012500Y-98900000D03*
%TD*%
D17*
%TO.P,C2,1*%
%TO.N,Net-(C2-Pad1)*%
X136475000Y-102500000D03*
%TO.P,C2,2*%
%TO.N,Net-(C2-Pad2)*%
X134525000Y-102500000D03*
%TD*%
D11*
%TO.P,C1,1*%
%TO.N,VCC*%
X149000000Y-99125000D03*
%TO.P,C1,2*%
%TO.N,GND*%
X149000000Y-101075000D03*
%TD*%
D18*
%TO.P,J2,1,Pin_1*%
%TO.N,VCC*%
X152590000Y-99500000D03*
D19*
%TO.P,J2,2,Pin_2*%
%TO.N,GND*%
X155130000Y-99500000D03*
%TO.P,J2,3,Pin_3*%
%TO.N,Net-(C6-Pad2)*%
X152600000Y-102200000D03*
%TO.P,J2,4,Pin_4*%
%TO.N,GND*%
X155100000Y-102200000D03*
%TD*%
D20*
%TO.P,C4,1*%
%TO.N,Net-(C2-Pad1)*%
X145000000Y-102662500D03*
%TO.P,C4,2*%
%TO.N,Net-(C4-Pad2)*%
X145000000Y-100937500D03*
%TD*%
D17*
%TO.P,C3,1*%
%TO.N,Net-(C3-Pad1)*%
X136575000Y-99100000D03*
%TO.P,C3,2*%
%TO.N,GND*%
X134625000Y-99100000D03*
%TD*%
D12*
%TO.P,R3,1*%
%TO.N,Net-(C3-Pad1)*%
X136612500Y-100800000D03*
%TO.P,R3,2*%
%TO.N,GND*%
X134787500Y-100800000D03*
%TD*%
D21*
%TO.P,J1,1,Pin_1*%
%TO.N,GND*%
X129900000Y-99800000D03*
%TO.P,J1,2,Pin_2*%
%TO.N,Net-(C2-Pad2)*%
X129900000Y-101800000D03*
%TD*%
D22*
%TO.N,VCC*%
X137511355Y-100033768D03*
X140031451Y-99531451D03*
X133700000Y-100100000D03*
X144091762Y-99845496D03*
X141000000Y-100700000D03*
X147802528Y-99776984D03*
%TO.N,GND*%
X131537020Y-98962980D03*
X138800000Y-99100000D03*
X139800000Y-102100000D03*
%TD*%
D23*
%TO.N,VCC*%
X143512500Y-99167500D02*
X141230000Y-101450000D01*
X141230000Y-101450000D02*
X141230000Y-100930000D01*
X150900000Y-99100000D02*
X149025000Y-99100000D01*
X141230000Y-100930000D02*
X141000000Y-100700000D01*
X132825000Y-100100000D02*
X132500000Y-99775000D01*
X143512500Y-98900000D02*
X143512500Y-99167500D01*
X133700000Y-100100000D02*
X132825000Y-100100000D01*
X143512500Y-99266234D02*
X144091762Y-99845496D01*
X140031451Y-98931049D02*
X140062500Y-98900000D01*
X137528550Y-100016573D02*
X137511355Y-100033768D01*
X149025000Y-99100000D02*
X149000000Y-99125000D01*
X143512500Y-98900000D02*
X143512500Y-99266234D01*
X152590000Y-99500000D02*
X151300000Y-99500000D01*
X151300000Y-99500000D02*
X150900000Y-99100000D01*
X140031451Y-99531451D02*
X139546329Y-100016573D01*
X139546329Y-100016573D02*
X137528550Y-100016573D01*
X140031451Y-99531451D02*
X140031451Y-98931049D01*
X148454512Y-99125000D02*
X147802528Y-99776984D01*
X149000000Y-99125000D02*
X148454512Y-99125000D01*
D24*
%TO.N,GND*%
X130537020Y-98962980D02*
X131537020Y-98962980D01*
X129900000Y-99600000D02*
X130537020Y-98962980D01*
X138337500Y-98900000D02*
X138600000Y-98900000D01*
X131537020Y-98962980D02*
X134587980Y-98962980D01*
X134787500Y-100800000D02*
X134959576Y-100800000D01*
X139800000Y-102100000D02*
X138570000Y-102100000D01*
X138600000Y-98900000D02*
X138800000Y-99100000D01*
X134625000Y-99000000D02*
X134787500Y-99162500D01*
X150412500Y-101075000D02*
X150700000Y-100787500D01*
X153687500Y-100787500D02*
X155100000Y-102200000D01*
X134787500Y-99162500D02*
X134787500Y-100800000D01*
X150700000Y-100787500D02*
X153687500Y-100787500D01*
X134787500Y-100800000D02*
X134969770Y-100800000D01*
X149000000Y-101075000D02*
X150412500Y-101075000D01*
X134587980Y-98962980D02*
X134625000Y-99000000D01*
%TO.N,Net-(C2-Pad1)*%
X142737989Y-103274511D02*
X139094511Y-103274511D01*
X143300000Y-102712500D02*
X142737989Y-103274511D01*
X136750000Y-102750000D02*
X138570000Y-102750000D01*
X145000000Y-102662500D02*
X143350000Y-102662500D01*
X143350000Y-102662500D02*
X143300000Y-102712500D01*
X136600000Y-102600000D02*
X136750000Y-102750000D01*
X139094511Y-103274511D02*
X138570000Y-102750000D01*
%TO.N,Net-(C2-Pad2)*%
X130800000Y-101600000D02*
X133200000Y-101600000D01*
X133200000Y-101600000D02*
X133700000Y-101600000D01*
X133700000Y-101600000D02*
X134700000Y-102600000D01*
%TO.N,Net-(C3-Pad1)*%
X139137500Y-101450000D02*
X138570000Y-101450000D01*
X137262500Y-101450000D02*
X136612500Y-100800000D01*
X136612500Y-100800000D02*
X136612500Y-99137500D01*
X138570000Y-101450000D02*
X137262500Y-101450000D01*
X141687500Y-98900000D02*
X139137500Y-101450000D01*
%TO.N,Net-(C4-Pad2)*%
X141780000Y-102750000D02*
X143300000Y-101230000D01*
X143300000Y-100887500D02*
X144950000Y-100887500D01*
X144950000Y-100887500D02*
X145000000Y-100937500D01*
X145000000Y-99087500D02*
X145187500Y-98900000D01*
X145000000Y-100937500D02*
X145000000Y-99087500D01*
X141230000Y-102750000D02*
X141780000Y-102750000D01*
X143300000Y-101230000D02*
X143300000Y-100887500D01*
%TO.N,Net-(C6-Pad1)*%
X146800000Y-99112500D02*
X146800000Y-100625000D01*
X146800000Y-99112500D02*
X147012500Y-98900000D01*
%TO.N,Net-(C6-Pad2)*%
X150612500Y-102700000D02*
X150700000Y-102612500D01*
X152187500Y-102612500D02*
X152600000Y-102200000D01*
X146800000Y-102700000D02*
X150612500Y-102700000D01*
X150700000Y-102612500D02*
X152187500Y-102612500D01*
X152387500Y-102612500D02*
X152600000Y-102400000D01*
%TD*%
M02*
